<svg width="140" height="50" viewBox="0 0 140 50" fill="none" xmlns="http://www.w3.org/2000/svg">
<path d="M55.3128 12.7349V33.5104L58.1257 33.5308V23.6328H64.911V21.0206H58.1257V15.3471H66.9508V12.7349H55.3128ZM72.0183 16.9594C73.0275 16.9594 73.865 16.1838 73.865 15.2043C73.865 14.2247 73.049 13.4491 72.0183 13.4491C71.0091 13.4491 70.1717 14.2247 70.1717 15.2043C70.1717 16.1838 70.9877 16.9594 72.0183 16.9594ZM70.5797 19.5716V33.5308H73.3926V19.5716H70.5797ZM83.8281 19.1634C80.0919 19.1634 77.4938 22.1634 77.4938 25.7349C77.4938 29.3063 80.0919 32.3063 83.8281 32.3063C85.5459 32.3063 86.9416 31.694 87.9723 30.6532V32.5104C87.9938 34.8165 86.0613 36.7349 83.6134 36.7553C83.5919 36.7553 83.5919 36.7553 83.5705 36.7553C82.6686 36.7553 81.7883 36.4287 81.0797 35.9594L79.6625 38.2859C83.0122 40.3471 87.4784 39.4287 89.6257 36.2451C90.3772 35.1226 90.7852 33.8369 90.7852 32.5104V19.592H87.9723V20.8369C86.9416 19.7961 85.5459 19.1634 83.8281 19.1634ZM80.3067 25.7349C80.3067 23.5104 82.0889 21.7757 84.1502 21.7757C86.2116 21.7757 87.9723 23.5308 87.9723 25.7349C87.9723 27.9594 86.1901 29.6736 84.1502 29.6736C82.0889 29.6736 80.3067 27.9389 80.3067 25.7349ZM100.92 21.7757C99.2453 21.7961 97.8926 23.1022 97.914 24.694V33.5104H95.1011V19.5512H97.914V20.8369C98.7729 19.7553 100.104 19.143 101.543 19.1634C103.518 19.1634 105.043 20.0818 105.902 21.5104C106.889 20.0614 108.564 19.1838 110.368 19.1634C113.567 19.1634 115.564 21.6124 115.564 24.6532V33.5104H112.773V24.694C112.773 23.1022 111.442 21.7961 109.767 21.7757C108.092 21.7961 106.739 23.1022 106.761 24.694V33.5104H103.926V24.694C103.926 23.1022 102.595 21.7961 100.92 21.7757ZM130.552 21.143C129.264 19.8573 127.46 19.143 125.592 19.1634C121.405 19.1634 118.442 22.5308 118.442 26.5308C118.442 30.5512 121.405 33.8981 125.592 33.8981C127.46 33.8981 129.242 33.1838 130.552 31.9185V33.5104H133.365V19.5512H130.552V21.143ZM121.255 26.5308C121.255 23.8777 123.402 21.7553 125.914 21.7553C128.405 21.7757 130.552 23.8777 130.552 26.5308C130.552 29.1838 128.405 31.2859 125.893 31.2859C123.423 31.3063 121.255 29.2043 121.255 26.5308Z" fill="white" fill-opacity="0.4"/>
<path d="M18.9817 25.6124C18.9817 21.8165 22.224 18.7349 26.2179 18.7349C30.2117 18.7349 33.4541 21.8165 33.4541 25.6124C33.4541 29.4083 30.2117 32.49 26.2179 32.49C22.224 32.49 18.9817 29.4083 18.9817 25.6124Z" fill="white" fill-opacity="0.4"/>
<path d="M4.53059 39.3468C4.53059 35.5509 7.77292 32.4692 11.7668 32.4692H19.003V39.3468C19.003 43.1427 15.7607 46.2243 11.7668 46.2243C7.77292 46.2243 4.53059 43.1427 4.53059 39.3468Z" fill="white" fill-opacity="0.4"/>
<path d="M18.9817 4.9999V18.7346H26.2179C30.2117 18.7346 33.4541 15.653 33.4541 11.857C33.4541 8.06113 30.2117 4.97949 26.2179 4.97949H18.9817V4.9999Z" fill="white" fill-opacity="0.4"/>
<path d="M4.53059 11.8777C4.53059 15.6737 7.77292 18.7553 11.7668 18.7553H19.003V5.02061H11.7668C7.77292 5.0002 4.53059 8.08183 4.53059 11.8777Z" fill="white" fill-opacity="0.4"/>
<path d="M4.53059 25.6121C4.53059 29.408 7.77292 32.4897 11.7668 32.4897H19.003V18.755H11.7668C7.77292 18.7346 4.53059 21.8162 4.53059 25.6121Z" fill="white" fill-opacity="0.4"/>
</svg>
