<svg width="90" height="91" viewBox="0 0 90 91" fill="none" xmlns="http://www.w3.org/2000/svg">
<circle cx="45" cy="46" r="45" fill="#344C31"/>
<g clip-path="url(#clip0_3_339)">
<path d="M69.581 66.6491L66.027 64.1538C65.7247 63.9417 65.3335 63.9156 65.0059 64.0859C64.6782 64.2562 64.4747 64.5913 64.4747 64.9606V66.7225H57.3056V56.9226H58.1662C61.1703 56.9226 63.6143 54.4787 63.6143 51.4746V51.2032C63.6143 50.3092 62.8868 49.5817 61.9928 49.5817H61.2867C59.7168 49.5817 58.3007 50.2501 57.3056 51.3161V44.5586H59.4166C63.0145 44.5586 65.9417 41.6315 65.9417 38.0336C65.9417 37.3326 65.3714 36.7622 64.6704 36.7622H61.8259C61.7929 36.7622 61.7601 36.7632 61.7274 36.7643L61.6924 36.7653C61.2874 36.7741 60.9663 37.1097 60.9752 37.5147C60.9841 37.9196 61.3186 38.2436 61.7245 38.2319L61.7769 38.2303C61.7933 38.2298 61.8095 38.2291 61.8259 38.2291H64.471C64.3677 40.9278 62.1402 43.0916 59.4166 43.0916H57.3056V42.7494C57.3056 41.3546 57.9362 40.059 59.0359 39.1945C59.3544 38.9442 59.4096 38.4831 59.1593 38.1645C58.909 37.846 58.4478 37.7909 58.1294 38.0412C57.3401 38.6617 56.7351 39.4512 56.345 40.3377C55.5669 39.3892 54.3864 38.7827 53.0667 38.7827H51.7165C50.8691 38.7827 50.1797 39.4721 50.1797 40.3195C50.1797 42.6569 52.0813 44.5585 54.4186 44.5585H55.8388V55.0297V56.189V66.7223H50.9794C50.5742 66.7223 50.2459 67.0507 50.2459 67.4557C50.2459 67.8608 50.5742 68.1892 50.9794 68.1892H64.4748V69.9511C64.4748 70.3203 64.6783 70.6556 65.006 70.8259C65.1498 70.9006 65.3057 70.9375 65.4611 70.9375C65.6598 70.9375 65.8576 70.8771 66.0271 70.758L69.5811 68.2627C69.8438 68.0783 70.0005 67.7766 70.0005 67.4558C70.0004 67.1352 69.8436 66.8336 69.581 66.6491ZM51.6467 40.3197C51.6467 40.2812 51.678 40.2499 51.7165 40.2499H53.0667C54.5952 40.2499 55.8388 41.4934 55.8388 43.0219V43.0918H54.4186C52.8902 43.0918 51.6467 41.8483 51.6467 40.3197ZM61.2867 51.0488H61.9928C62.078 51.0488 62.1473 51.118 62.1473 51.2033V51.4747C62.1473 53.6699 60.3614 55.4558 58.1662 55.4558H57.3056V55.03C57.3056 52.8347 59.0915 51.0488 61.2867 51.0488ZM65.9417 69.0257V65.8864L68.1772 67.456L65.9417 69.0257Z" fill="#F7C35F"/>
<path d="M47.853 66.7225H45.7826V57.952H46.8607C49.6122 57.952 51.8506 55.7135 51.8506 52.9622V52.1166C51.8506 51.1794 51.0882 50.4171 50.1511 50.4171H49.3055C47.3091 50.4171 45.5836 51.5961 44.7865 53.294C44.1386 52.621 43.2298 52.2009 42.2241 52.2009H41.2989C40.5999 52.2009 40.0312 52.7696 40.0312 53.4686V54.3937C40.0312 56.3558 41.6275 57.9521 43.5897 57.9521H44.3156V66.7226H35.2391V64.2353H35.7823C38.0515 64.2353 39.8977 62.3891 39.8977 60.1198V59.2131C39.8977 58.4033 39.2389 57.7443 38.4289 57.7443H37.8876C36.3411 57.7443 34.9918 58.6021 34.2886 59.8666C33.7073 59.2892 32.9072 58.9318 32.025 58.9318H31.3126C30.6792 58.9318 30.164 59.4471 30.164 60.0803V61.0212C30.164 62.7934 31.6058 64.2352 33.378 64.2352H33.7721V66.7225H24.512V60.1856H25.2598C25.6649 60.1856 25.9932 59.8572 25.9932 59.4521C25.9932 59.0471 25.6649 58.7187 25.2598 58.7187H24.512V53.1292H25.2598C25.6649 53.1292 25.9932 52.8008 25.9932 52.3957C25.9932 51.9907 25.6649 51.6623 25.2598 51.6623H24.512V46.0729H25.2598C25.6649 46.0729 25.9932 45.7445 25.9932 45.3394C25.9932 44.9344 25.6649 44.606 25.2598 44.606H24.512V39.0166H25.2598C25.6649 39.0166 25.9932 38.6882 25.9932 38.2831C25.9932 37.878 25.6649 37.5496 25.2598 37.5496H24.512V31.9602H25.2598C25.6649 31.9602 25.9932 31.6318 25.9932 31.2267C25.9932 30.8216 25.6649 30.4932 25.2598 30.4932H24.512V26.5877H26.2739C26.6431 26.5877 26.9783 26.3842 27.1485 26.0565C27.3189 25.7289 27.293 25.3376 27.0808 25.0352L24.5854 21.4814C24.4011 21.2189 24.0996 21.0621 23.7788 21.062C23.7787 21.062 23.7786 21.062 23.7785 21.062C23.4578 21.062 23.1562 21.2187 22.9717 21.4814L20.4764 25.0352C20.2642 25.3374 20.238 25.7287 20.4084 26.0564C20.5788 26.3842 20.9139 26.5877 21.2832 26.5877H23.045V66.7225H20.7335C20.3283 66.7225 20 67.0509 20 67.456C20 67.8611 20.3283 68.1895 20.7335 68.1895H47.853C48.2582 68.1895 48.5865 67.8611 48.5865 67.456C48.5865 67.0509 48.2581 66.7225 47.853 66.7225ZM45.7826 55.4069C45.7826 53.4644 47.3629 51.8841 49.3055 51.8841H50.1511C50.2794 51.8841 50.3836 51.9884 50.3836 52.1166V52.9622C50.3836 54.9047 48.8033 56.4851 46.8607 56.4851H45.7826V55.7592V55.4069ZM41.4983 54.3937V53.6678H42.2242C43.3774 53.6678 44.3157 54.6061 44.3157 55.7593V56.4852H43.5898C42.4366 56.4852 41.4983 55.5469 41.4983 54.3937ZM35.2392 61.8598C35.2392 60.3994 36.4273 59.2114 37.8877 59.2114L38.4309 59.2132V60.1199C38.4309 61.5803 37.2428 62.7685 35.7824 62.7685H35.2392V62.146V61.8598ZM31.6312 61.0213V60.3988H32.0252C32.9886 60.3988 33.7723 61.1826 33.7723 62.1459V62.7684H33.3781C32.4148 62.7684 31.6312 61.9846 31.6312 61.0213ZM23.7785 22.8851L25.3483 25.1207H22.2088L23.7785 22.8851Z" fill="#F7C35F"/>
<path d="M56.1457 25.4957L53.1076 25.126C52.7057 25.0771 52.3397 25.3634 52.2908 25.7656C52.2419 26.1678 52.5282 26.5335 52.9303 26.5824L54.2191 26.7391L41.0376 37.1342L40.4627 35.9049C40.3669 35.6999 40.1818 35.5506 39.9611 35.5004C39.7407 35.4505 39.509 35.5045 39.3338 35.6479L28.0503 44.8787C27.7368 45.1353 27.6905 45.5974 27.9471 45.9109C28.0921 46.0881 28.3028 46.18 28.5152 46.18C28.6786 46.18 28.843 46.1257 28.9792 46.0142L39.5332 37.3801L40.1007 38.5939C40.1955 38.7968 40.3779 38.9452 40.5958 38.9969C40.8136 39.0485 41.0433 38.9979 41.2193 38.8591L55.3238 27.7365V29.4559C55.3238 29.861 55.6521 30.1894 56.0573 30.1894C56.4624 30.1894 56.7908 29.861 56.7908 29.4559V26.2239C56.7908 25.815 56.4645 25.5346 56.1457 25.4957Z" fill="#F7C35F"/>
</g>
<defs>
<clipPath id="clip0_3_339">
<rect width="50" height="50" fill="white" transform="translate(20 21)"/>
</clipPath>
</defs>
</svg>
