<svg width="90" height="91" viewBox="0 0 90 91" fill="none" xmlns="http://www.w3.org/2000/svg">
<circle cx="45" cy="45.5" r="45" fill="#344C31"/>
<g clip-path="url(#clip0_3_351)">
<path d="M50.3903 50.2033L52.1612 49.0887C52.2193 49.0525 52.2697 49.0051 52.3096 48.9494C52.3494 48.8937 52.3779 48.8306 52.3934 48.7639C52.4088 48.6971 52.411 48.628 52.3998 48.5604C52.3885 48.4928 52.3641 48.4281 52.3278 48.37C52.2916 48.3119 52.2442 48.2614 52.1885 48.2216C52.1327 48.1818 52.0697 48.1533 52.003 48.1378C51.9362 48.1223 51.8671 48.1201 51.7995 48.1314C51.7319 48.1426 51.6672 48.1671 51.6091 48.2033L50.208 49.1252L50.5049 48.2137C50.547 48.0818 50.535 47.9386 50.4716 47.8155C50.4401 47.7546 50.397 47.7004 50.3446 47.6561C50.2923 47.6119 50.2317 47.5784 50.1664 47.5575C50.0344 47.5154 49.8912 47.5274 49.7681 47.5909C49.6451 47.6543 49.5522 47.7641 49.5101 47.896L49.2184 48.8023L48.5935 47.2398C48.5423 47.1113 48.4423 47.0084 48.3153 46.9537C48.1883 46.899 48.0448 46.897 47.9164 46.9481C47.7879 46.9992 47.685 47.0993 47.6303 47.2263C47.5756 47.3532 47.5736 47.4967 47.6247 47.6252L48.4007 49.5679C46.1991 49.1352 43.9152 49.5231 41.9799 50.6585C40.0446 51.7939 38.5917 53.5982 37.8952 55.7312C37.1988 57.8641 37.3069 60.1782 38.1993 62.2369C39.0916 64.2956 40.7065 65.9565 42.7393 66.9065L40.9684 68.0262C40.8503 68.1002 40.7664 68.2179 40.7352 68.3537C40.7039 68.4895 40.7279 68.6321 40.8018 68.7502C40.8757 68.8683 40.9935 68.9522 41.1292 68.9835C41.265 69.0147 41.4076 68.9908 41.5257 68.9169L42.9476 68.021L42.6507 68.9169C42.608 69.0481 42.6191 69.1909 42.6816 69.314C42.7441 69.437 42.8529 69.5302 42.9841 69.5731C43.0377 69.5802 43.0919 69.5802 43.1455 69.5731C43.2604 69.5784 43.3738 69.5455 43.468 69.4795C43.5622 69.4136 43.632 69.3183 43.6664 69.2085L43.958 68.3335L44.583 69.896C44.6216 69.993 44.6884 70.076 44.7748 70.1345C44.8612 70.193 44.9631 70.2243 45.0674 70.2242C45.1334 70.2243 45.1988 70.212 45.2601 70.1877C45.3238 70.1625 45.3818 70.1249 45.4309 70.0772C45.48 70.0295 45.5193 69.9725 45.5464 69.9096C45.5734 69.8468 45.5879 69.7791 45.5888 69.7107C45.5897 69.6422 45.5772 69.5742 45.5518 69.5106L44.7705 67.5627C45.3666 67.6883 45.9739 67.7529 46.583 67.7554C48.6794 67.7537 50.7122 67.0354 52.3443 65.7198C53.9765 64.4043 55.1099 62.5703 55.5568 60.5222C56.0036 58.474 55.737 56.3346 54.8011 54.4588C53.8652 52.5829 52.3163 51.0833 50.4112 50.2085L50.3903 50.2033ZM44.0622 66.3127C43.6143 66.0002 43.6039 62.9169 45.1664 58.1044C46.7289 53.2919 48.5466 50.8127 49.0778 50.8127C49.5205 51.1252 49.531 54.2085 47.9685 59.021C46.406 63.8335 44.5882 66.3127 44.0622 66.3127ZM47.6039 50.6877C47.252 51.1043 46.9366 51.5504 46.6612 52.021C45.625 53.8357 44.7869 55.7564 44.1612 57.7502C43.4268 60.0106 42.5987 63.4273 42.7757 65.5106C42.11 64.8162 41.6455 63.9538 41.432 63.0158C40.9744 61.0102 41.0918 58.9161 41.7705 56.9742C42.3622 55.0036 43.4977 53.2399 45.0466 51.8856C45.7745 51.2616 46.6585 50.8475 47.6039 50.6877ZM45.5205 66.4221C45.8701 66.0049 46.1837 65.5588 46.458 65.0887C47.4936 63.2647 48.3317 61.3354 48.958 59.3335C49.6872 57.0783 50.5205 53.6565 50.3382 51.5731C51.0074 52.2659 51.4739 53.1287 51.6872 54.0679C52.1448 56.0736 52.0274 58.1676 51.3487 60.1096C50.208 63.6148 47.8122 66.1096 45.5205 66.4221ZM38.8174 56.0367C39.2784 54.6192 40.1195 53.3553 41.249 52.3828C42.3786 51.4102 43.7534 50.7663 45.2237 50.521C44.9339 50.6972 44.6572 50.8939 44.3955 51.1096C42.6943 52.5905 41.4436 54.5198 40.7862 56.6773C40.0495 58.8088 39.9268 61.1044 40.432 63.3023C40.5176 63.6287 40.6255 63.9489 40.7549 64.2606C39.7113 63.1977 38.979 61.8692 38.6374 60.4193C38.2958 58.9694 38.3581 57.4536 38.8174 56.0367ZM54.3174 61.0731C53.8554 62.4947 53.0107 63.7615 51.876 64.7345C50.7413 65.7074 49.3605 66.349 47.8851 66.5887C49.7601 65.4273 51.4372 63.2242 52.3435 60.4325C53.0836 58.3036 53.2082 56.0092 52.7028 53.8127C52.6149 53.4887 52.507 53.1704 52.3799 52.8596C53.4216 53.9215 54.1528 55.2483 54.4943 56.6961C54.8359 58.1439 54.7747 59.6576 54.3174 61.0731ZM67.307 42.3908C67.2868 42.3551 67.2604 42.3233 67.2289 42.2971C67.1455 42.1981 67.0674 42.0887 66.9789 41.995L66.2393 41.1929C66.0028 40.9354 65.7176 40.7274 65.4003 40.5808C65.0829 40.4342 64.7397 40.3519 64.3903 40.3387L64.7445 39.6356C64.9122 39.2982 64.9721 38.9174 64.9162 38.5448C64.8603 38.1721 64.6913 37.8257 64.432 37.5523C64.3372 37.4584 64.2716 37.3392 64.243 37.2089C64.2143 37.0786 64.2239 36.9429 64.2705 36.8179L64.8643 35.3335C64.9863 35.0308 65.0246 34.7009 64.9751 34.3783C64.9256 34.0557 64.7902 33.7524 64.583 33.5002L64.0622 32.8856C63.9259 32.7204 63.8308 32.5252 63.7846 32.316C63.7385 32.1069 63.7425 31.8898 63.7966 31.6825L64.0049 30.896C64.1329 30.4282 64.0842 29.9296 63.8681 29.4954C63.6519 29.0612 63.2835 28.7218 62.833 28.5419C62.5803 28.4409 62.3559 28.28 62.179 28.0732C62.0021 27.8664 61.878 27.6197 61.8174 27.3544L61.6247 26.4846C61.5719 26.2532 61.4645 26.0379 61.3113 25.8567C61.1582 25.6754 60.9638 25.5335 60.7445 25.4429C60.4645 25.3257 60.1545 25.3002 59.8591 25.37L59.9945 24.8023C60.0849 24.392 60.0434 23.9637 59.876 23.5783C59.7086 23.193 59.4238 22.8704 59.0622 22.6565L58.7497 22.4794C58.5331 22.3554 58.2926 22.279 58.0442 22.2553C57.7958 22.2316 57.5452 22.2612 57.3091 22.342C57.073 22.4228 56.8568 22.5531 56.675 22.7241C56.4933 22.8951 56.35 23.1028 56.2549 23.3335L55.9372 23.9898C55.895 24.0944 55.8233 24.1846 55.7308 24.2493C55.6384 24.314 55.5291 24.3505 55.4164 24.3544C55.2299 24.3556 55.0458 24.3958 54.8757 24.4723C54.7057 24.5488 54.5535 24.66 54.429 24.7988C54.3044 24.9376 54.2102 25.1008 54.1525 25.2781C54.0947 25.4554 54.0746 25.6428 54.0934 25.8283L54.2393 27.2971C54.2846 27.7509 54.1521 28.2047 53.8695 28.5627L53.3903 29.1669C53.0622 29.5854 52.8892 30.1047 52.9006 30.6364C52.912 31.1681 53.1071 31.6794 53.4528 32.0835L53.9737 32.6929C54.1372 32.8755 54.2581 33.0922 54.3275 33.3274C54.3968 33.5625 54.413 33.8101 54.3747 34.0523L54.2705 34.6304C54.2049 35.0197 54.2469 35.4195 54.3919 35.7867C54.5369 36.1538 54.7795 36.4744 55.0934 36.7137L55.833 37.271C55.946 37.358 56.0342 37.4729 56.089 37.6045C56.1438 37.736 56.1633 37.8796 56.1455 38.021C56.0816 38.5077 56.1856 39.0015 56.4403 39.421C56.6951 39.8406 57.0853 40.1606 57.5466 40.3283C57.7659 40.4128 57.9638 40.5449 58.1259 40.7152C58.2881 40.8854 58.4104 41.0895 58.4841 41.3127L58.6351 41.7137C58.3019 41.9036 58.0139 42.1636 57.7909 42.4756C57.5679 42.7876 57.4152 43.1443 57.3434 43.521L57.0778 44.9221C56.8619 46.0656 56.8842 47.2413 57.1432 48.3758C57.4021 49.5104 57.8923 50.5793 58.583 51.5158L66.5518 62.3023C66.5998 62.3679 66.6624 62.4214 66.7348 62.4585C66.8071 62.4956 66.8872 62.5152 66.9685 62.5158C67.0117 62.5209 67.0554 62.5209 67.0987 62.5158C67.2 62.4893 67.2909 62.4329 67.3597 62.3539C67.4284 62.275 67.4718 62.1771 67.4841 62.0731L69.1507 48.7815C69.2931 47.6469 69.203 46.4952 68.886 45.3965C68.5691 44.2979 68.0318 43.2752 67.307 42.3908ZM57.8955 39.3804C57.6584 39.2914 57.4578 39.1257 57.3256 38.9096C57.1935 38.6935 57.1374 38.4394 57.1664 38.1877C57.209 37.8643 57.166 37.5354 57.0417 37.2338C56.9174 36.9322 56.7161 36.6684 56.458 36.469L55.7185 35.9117C55.5535 35.7851 55.4264 35.6158 55.3511 35.422C55.2758 35.2282 55.2551 35.0174 55.2914 34.8127L55.3955 34.2346C55.465 33.8419 55.4463 33.4387 55.341 33.0541C55.2356 32.6695 55.0461 32.3131 54.7862 32.0106L54.2653 31.4012C54.0826 31.1837 53.9794 30.9104 53.9728 30.6264C53.9662 30.3424 54.0565 30.0646 54.2289 29.8387L54.708 29.2346C55.16 28.6654 55.3713 27.9419 55.2966 27.219L55.1507 25.7502C55.1433 25.7093 55.1445 25.6673 55.154 25.6269C55.1636 25.5865 55.1814 25.5484 55.2063 25.5152C55.2313 25.482 55.2628 25.4542 55.2989 25.4337C55.3351 25.4132 55.375 25.4004 55.4164 25.396C55.7348 25.3912 56.0449 25.2935 56.3086 25.1149C56.5722 24.9364 56.7781 24.6847 56.9007 24.3908L57.1716 23.7346C57.2109 23.6402 57.2697 23.5552 57.3442 23.4851C57.4187 23.4151 57.5072 23.3617 57.6039 23.3283C57.7003 23.2949 57.8028 23.2827 57.9044 23.2926C58.006 23.3025 58.1042 23.3342 58.1924 23.3856L58.5049 23.5627C58.6834 23.6635 58.8242 23.8197 58.906 24.0076C58.9878 24.1956 59.006 24.4051 58.958 24.6044L58.7184 25.62V25.6669L58.2705 28.969C58.2512 29.1057 58.287 29.2445 58.37 29.3549C58.453 29.4653 58.5765 29.5381 58.7132 29.5575H58.7862C58.9133 29.5586 59.0365 29.5131 59.1324 29.4296C59.2284 29.3462 59.2905 29.2305 59.307 29.1044L59.6507 26.5783C59.7555 26.5633 59.8564 26.5279 59.9476 26.4742C60.0052 26.4304 60.0729 26.402 60.1445 26.3915C60.216 26.3811 60.2891 26.389 60.3567 26.4145C60.4244 26.44 60.4845 26.4823 60.5314 26.5373C60.5782 26.5924 60.6103 26.6585 60.6247 26.7294L60.8226 27.5992C60.9198 28.0299 61.1205 28.4304 61.4073 28.7662C61.694 29.102 62.0583 29.3628 62.4685 29.5262C62.6808 29.6124 62.8542 29.7734 62.956 29.9788C63.0577 30.1842 63.0807 30.4197 63.0205 30.6408L62.8174 31.3804C62.7177 31.7507 62.7087 32.1395 62.7913 32.5139C62.8738 32.8884 63.0453 33.2374 63.2914 33.5315L63.8122 34.1408C63.9049 34.25 63.966 34.3824 63.9889 34.5238C64.0119 34.6651 63.9958 34.81 63.9424 34.9429L63.3487 36.4273C63.2269 36.7357 63.1955 37.0725 63.2582 37.3981C63.321 37.7237 63.4752 38.0247 63.7028 38.2658C63.8157 38.3826 63.8894 38.5316 63.9137 38.6921C63.9379 38.8527 63.9116 39.0168 63.8382 39.1617L63.156 40.5315L62.333 40.7294L62.8539 38.844C62.8912 38.7107 62.874 38.568 62.8061 38.4474C62.7382 38.3267 62.6252 38.238 62.4919 38.2007C62.3586 38.1634 62.2159 38.1806 62.0953 38.2485C61.9747 38.3164 61.886 38.4294 61.8487 38.5627L61.4424 39.995L61.4112 39.9325C60.5183 38.1291 59.9757 36.1726 59.8122 34.1669C59.8005 34.0287 59.7343 33.9009 59.6283 33.8116C59.5224 33.7222 59.3852 33.6786 59.2471 33.6903C59.109 33.7021 58.9812 33.7682 58.8918 33.8742C58.8024 33.9801 58.7588 34.1173 58.7705 34.2554C58.8174 34.7762 58.8851 35.2971 58.9789 35.8179L58.1403 35.2971C58.0243 35.2218 57.8831 35.1957 57.7478 35.2245C57.6125 35.2533 57.4943 35.3347 57.419 35.4507C57.3437 35.5668 57.3176 35.7079 57.3464 35.8432C57.3752 35.9785 57.4566 36.0968 57.5726 36.1721L59.3018 37.2919C59.5913 38.3687 59.9837 39.4152 60.4737 40.4169L60.8122 41.0992L59.6247 41.3804L59.4684 40.9585C59.3371 40.5968 59.1283 40.2681 58.8566 39.9955C58.5849 39.7228 58.2569 39.5129 57.8955 39.3804ZM66.6143 60.6356L59.4216 50.8908C58.8158 50.0698 58.3861 49.1325 58.1594 48.1377C57.9326 47.1429 57.9137 46.112 58.1039 45.1096L58.3695 43.7085C58.4274 43.4033 58.573 43.1215 58.7886 42.8976C59.0041 42.6738 59.2802 42.5176 59.583 42.4481L63.156 41.6044L63.9372 41.4221C64.0565 41.3928 64.179 41.3788 64.3018 41.3804C64.5241 41.3808 64.744 41.4273 64.9475 41.517C65.151 41.6066 65.3337 41.7375 65.4841 41.9012L65.9216 42.3804L62.9528 43.1565C62.8147 43.1737 62.6891 43.2452 62.6036 43.355C62.5181 43.4649 62.4798 43.6043 62.4971 43.7424C62.5144 43.8805 62.5858 44.0061 62.6957 44.0916C62.8056 44.1771 62.9449 44.2154 63.083 44.1981C63.1263 44.2032 63.17 44.2032 63.2132 44.1981L66.682 43.2919C66.9545 43.6511 67.1933 44.0347 67.3955 44.4377L65.833 44.8544C65.7646 44.8629 65.6986 44.8849 65.6387 44.9189C65.5788 44.953 65.5261 44.9985 65.4838 45.053C65.4415 45.1074 65.4103 45.1696 65.392 45.236C65.3738 45.3025 65.3688 45.3719 65.3773 45.4403C65.3859 45.5087 65.4078 45.5747 65.4419 45.6347C65.4759 45.6946 65.5215 45.7472 65.5759 45.7895C65.6303 45.8318 65.6925 45.863 65.759 45.8813C65.8254 45.8996 65.8948 45.9046 65.9632 45.896C66.0065 45.9011 66.0502 45.9011 66.0935 45.896L67.8174 45.4429C67.9508 45.8574 68.0484 46.2826 68.1091 46.7137L65.833 47.2502C65.7666 47.2672 65.7042 47.2971 65.6494 47.3383C65.5946 47.3795 65.5485 47.431 65.5136 47.4901C65.4788 47.5491 65.4559 47.6144 65.4464 47.6823C65.4369 47.7502 65.4408 47.8193 65.458 47.8856C65.4876 48.0002 65.5552 48.1013 65.6499 48.1723C65.7446 48.2433 65.8606 48.28 65.9789 48.2762C66.0221 48.2813 66.0658 48.2813 66.1091 48.2762L68.1924 47.7242C68.1958 48.034 68.1784 48.3437 68.1403 48.6512L68.083 49.0992L65.4789 49.7815C65.4125 49.7984 65.3501 49.8284 65.2953 49.8695C65.2404 49.9107 65.1943 49.9623 65.1595 50.0213C65.1246 50.0803 65.1018 50.1457 65.0922 50.2136C65.0827 50.2814 65.0866 50.3505 65.1039 50.4169C65.1334 50.5315 65.2011 50.6326 65.2957 50.7036C65.3904 50.7746 65.5064 50.8112 65.6247 50.8075C65.668 50.8126 65.7117 50.8126 65.7549 50.8075L67.9164 50.1981L66.6143 60.6356ZM58.3435 32.0783C58.3435 31.9753 58.374 31.8746 58.4312 31.789C58.4885 31.7033 58.5698 31.6366 58.665 31.5971C58.7601 31.5577 58.8649 31.5474 58.9659 31.5675C59.0669 31.5876 59.1597 31.6372 59.2326 31.71C59.3054 31.7829 59.355 31.8757 59.3751 31.9767C59.3952 32.0778 59.3849 32.1825 59.3455 32.2776C59.306 32.3728 59.2393 32.4542 59.1536 32.5114C59.068 32.5686 58.9673 32.5992 58.8643 32.5992C58.7262 32.5992 58.5937 32.5443 58.496 32.4466C58.3983 32.3489 58.3435 32.2165 58.3435 32.0783ZM41.7757 43.6929L41.8174 43.5783C43.1514 39.7472 43.2804 35.5995 42.1872 31.6929C42.0167 31.0703 41.6741 30.5085 41.1987 30.0718C40.7234 29.6351 40.1345 29.3413 39.4997 29.2242C38.7307 29.0837 37.9367 29.2047 37.2445 29.5679L36.7237 29.8596C36.6288 29.9112 36.5245 29.943 36.417 29.9531C36.3094 29.9632 36.201 29.9513 36.0982 29.9181C35.9955 29.885 35.9005 29.8314 35.8191 29.7604C35.7377 29.6895 35.6715 29.6027 35.6247 29.5054C35.3584 28.9489 34.9682 28.4607 34.4841 28.0783L34.6247 26.3335C34.646 26.0407 34.7346 25.7567 34.8836 25.5038C35.0327 25.2508 35.2382 25.0357 35.4841 24.8752L35.6664 24.7554C35.8511 24.631 36.0087 24.4704 36.1296 24.2833C36.2504 24.0961 36.3321 23.8865 36.3695 23.6669C36.4183 23.3514 36.3728 23.0285 36.2387 22.7388C36.1046 22.449 35.8879 22.2054 35.6158 22.0384C35.3437 21.8715 35.0283 21.7887 34.7092 21.8004C34.3902 21.8121 34.0817 21.9179 33.8226 22.1044L33.6664 22.2137C32.9981 22.692 32.4467 23.3153 32.0535 24.0368C31.6602 24.7584 31.4353 25.5596 31.3955 26.3804L31.3539 27.2085C30.4703 27.324 29.6471 27.7196 29.005 28.3374C28.3629 28.9551 27.9357 29.7624 27.7862 30.6408V30.6669C27.7786 30.7176 27.7584 30.7656 27.7274 30.8066C27.6965 30.8475 27.6558 30.8801 27.6091 30.9012C27.5641 30.925 27.5141 30.9374 27.4632 30.9374C27.4124 30.9374 27.3624 30.925 27.3174 30.9012L26.6039 30.4585C26.1344 30.1729 25.6054 29.9994 25.058 29.9515C24.5106 29.9037 23.9595 29.9827 23.4476 30.1825C23.1652 30.292 22.8989 30.4392 22.6559 30.62C22.5796 30.6479 22.5108 30.6933 22.4551 30.7526C22.3994 30.8118 22.3584 30.8833 22.3353 30.9613C22.3122 31.0392 22.3077 31.1215 22.3221 31.2016C22.3365 31.2816 22.3695 31.3571 22.4183 31.4221C22.4672 31.4872 22.5306 31.5398 22.6034 31.5759C22.6763 31.612 22.7566 31.6305 22.8379 31.63C22.9193 31.6295 22.9993 31.61 23.0717 31.573C23.1441 31.5359 23.2069 31.4825 23.2549 31.4169C23.4282 31.2903 23.6173 31.187 23.8174 31.1096C24.1772 30.968 24.565 30.9122 24.9502 30.9465C25.3353 30.9809 25.7071 31.1045 26.0362 31.3075L26.7549 31.745C26.9961 31.8901 27.2762 31.9574 27.557 31.9377C27.372 33.2105 27.2832 34.4953 27.2914 35.7815C27.2914 35.9196 27.3462 36.0521 27.4439 36.1497C27.5416 36.2474 27.6741 36.3023 27.8122 36.3023C27.9503 36.3023 28.0828 36.2474 28.1805 36.1497C28.2782 36.0521 28.333 35.9196 28.333 35.7815C28.3107 34.1248 28.459 32.4702 28.7757 30.844C28.8774 30.1853 29.1869 29.5764 29.6591 29.1062C30.1313 28.636 30.7415 28.329 31.4005 28.2301C32.0595 28.1312 32.7329 28.2456 33.3223 28.5566C33.9118 28.8675 34.3863 29.3587 34.6768 29.9585C34.7289 30.0581 34.7881 30.1539 34.8539 30.245C34.8512 30.257 34.8512 30.2695 34.8539 30.2815L35.4684 33.3544C35.4917 33.4747 35.5567 33.5831 35.652 33.6602C35.7473 33.7374 35.8667 33.7785 35.9893 33.7762H36.0934C36.161 33.7632 36.2252 33.7369 36.2825 33.6988C36.3398 33.6608 36.389 33.6118 36.4272 33.5547C36.4655 33.4975 36.492 33.4334 36.5054 33.3659C36.5187 33.2985 36.5185 33.2291 36.5049 33.1617L36.0674 30.9794C36.4522 31.0334 36.8442 30.9641 37.1872 30.7815L37.708 30.4898C38.1874 30.2374 38.7376 30.1531 39.2705 30.2502C39.7134 30.3306 40.1244 30.5347 40.4562 30.8388C40.788 31.143 41.027 31.5348 41.1455 31.969C42.1947 35.6679 42.0857 39.5995 40.833 43.2346L40.7914 43.3492C40.5717 43.977 40.1797 44.5304 39.6602 44.9458C39.1407 45.3612 38.5147 45.622 37.8539 45.6981C37.6606 45.7187 37.4702 45.7606 37.2862 45.8231L37.3382 45.219C37.5079 43.2229 37.4573 41.2143 37.1872 39.2294C37.1783 39.161 37.156 39.095 37.1216 39.0352C37.0873 38.9754 37.0414 38.923 36.9868 38.8809C36.9321 38.8388 36.8697 38.8079 36.8031 38.79C36.7365 38.772 36.6671 38.7674 36.5987 38.7762C36.5303 38.7851 36.4643 38.8074 36.4045 38.8418C36.3447 38.8762 36.2923 38.922 36.2502 38.9767C36.1652 39.087 36.1276 39.2267 36.1455 39.3648C36.4006 41.2813 36.4425 43.2203 36.2705 45.146L36.1768 46.521C36.0778 46.6225 35.9856 46.7304 35.9007 46.844C35.773 47.0305 35.6097 47.19 35.4203 47.3133C35.2308 47.4367 35.0188 47.5214 34.7966 47.5627L34.0309 47.7033C33.3576 47.8263 32.6631 47.7522 32.0309 47.4898L31.708 47.021C30.9317 45.8789 30.2804 44.6566 29.7653 43.3752C29.7153 43.247 29.6165 43.1438 29.4906 43.0882C29.3647 43.0325 29.2219 43.029 29.0934 43.0783C29.0293 43.1031 28.9708 43.1403 28.9211 43.1878C28.8714 43.2353 28.8316 43.2921 28.804 43.3551C28.7764 43.418 28.7616 43.4858 28.7603 43.5545C28.759 43.6232 28.7713 43.6915 28.7966 43.7554C29.273 44.9488 29.8644 46.0931 30.5622 47.1721C30.4123 47.1721 30.2627 47.1826 30.1143 47.2033L29.4059 47.3023C28.851 47.3813 28.285 47.3122 27.7654 47.1018C27.2459 46.8914 26.7912 46.5473 26.4476 46.1044C24.2642 43.2669 22.7346 39.982 21.9684 36.4846C21.8696 36.0207 21.8225 35.5474 21.8278 35.0731C21.8278 34.935 21.7729 34.8025 21.6753 34.7048C21.5776 34.6072 21.4451 34.5523 21.307 34.5523C21.1689 34.5523 21.0364 34.6072 20.9387 34.7048C20.841 34.8025 20.7862 34.935 20.7862 35.0731C20.7768 35.6281 20.8328 36.1822 20.9528 36.7242C21.7564 40.3727 23.3571 43.7983 25.6403 46.7554C26.0961 47.3439 26.6995 47.8013 27.3892 48.0812C28.0789 48.3611 28.8304 48.4536 29.5674 48.3492L30.2809 48.2502C30.6936 48.1892 31.115 48.2489 31.4945 48.4221C32.3504 48.8164 33.3079 48.9347 34.2341 48.7606L34.9997 48.62C35.7094 48.4922 36.3411 48.0922 36.7601 47.5054C36.9024 47.307 37.085 47.1409 37.2959 47.018C37.5068 46.895 37.7413 46.818 37.9841 46.7919C38.8442 46.6861 39.6568 46.3389 40.3279 45.7905C40.9989 45.2421 41.5009 44.5148 41.7757 43.6929ZM34.2653 23.0419L34.4216 22.9325C34.5437 22.8455 34.6946 22.8089 34.8429 22.8303C34.9913 22.8516 35.1258 22.9293 35.2184 23.0471C35.2675 23.1108 35.3029 23.1838 35.3226 23.2618C35.3424 23.3397 35.3459 23.4209 35.333 23.5002C35.3181 23.5781 35.2879 23.6524 35.2441 23.7185C35.2003 23.7847 35.1438 23.8415 35.0778 23.8856L34.9007 24.0054C34.5232 24.2535 34.2077 24.5848 33.9783 24.974C33.749 25.3632 33.612 25.7998 33.5778 26.2502L33.4737 27.4846C33.1259 27.3388 32.7595 27.2424 32.3851 27.1981L32.4268 26.4221C32.4595 25.7567 32.6418 25.1073 32.9601 24.5221C33.2784 23.9368 33.7245 23.4309 34.2653 23.0419ZM28.4007 38.4481C28.4007 38.5511 28.3702 38.6518 28.313 38.7375C28.2557 38.8231 28.1744 38.8899 28.0792 38.9293C27.9841 38.9687 27.8793 38.979 27.7783 38.9589C27.6773 38.9389 27.5845 38.8892 27.5116 38.8164C27.4388 38.7436 27.3892 38.6508 27.3691 38.5497C27.349 38.4487 27.3593 38.344 27.3987 38.2488C27.4381 38.1536 27.5049 38.0723 27.5905 38.0151C27.6762 37.9578 27.7769 37.9273 27.8799 37.9273C28.018 37.9273 28.1505 37.9822 28.2482 38.0798C28.3459 38.1775 28.4007 38.31 28.4007 38.4481ZM28.4424 40.9429C28.5454 40.9429 28.6461 40.9735 28.7318 41.0307C28.8174 41.0879 28.8842 41.1693 28.9236 41.2644C28.963 41.3596 28.9733 41.4643 28.9532 41.5654C28.9331 41.6664 28.8835 41.7592 28.8107 41.832C28.7379 41.9049 28.645 41.9545 28.544 41.9746C28.443 41.9947 28.3383 41.9844 28.2431 41.9449C28.1479 41.9055 28.0666 41.8388 28.0093 41.7531C27.9521 41.6675 27.9216 41.5668 27.9216 41.4637C27.9216 41.3953 27.935 41.3276 27.9612 41.2644C27.9874 41.2012 28.0258 41.1438 28.0741 41.0955C28.1225 41.0471 28.1799 41.0087 28.2431 40.9826C28.3063 40.9564 28.374 40.9429 28.4424 40.9429ZM35.833 36.6252C35.833 36.5222 35.8636 36.4215 35.9208 36.3358C35.978 36.2502 36.0594 36.1834 36.1546 36.144C36.2497 36.1046 36.3544 36.0943 36.4555 36.1144C36.5565 36.1345 36.6493 36.1841 36.7221 36.2569C36.795 36.3298 36.8446 36.4226 36.8647 36.5236C36.8848 36.6246 36.8745 36.7293 36.8351 36.8245C36.7956 36.9197 36.7289 37.001 36.6432 37.0583C36.5576 37.1155 36.4569 37.146 36.3539 37.146C36.2157 37.146 36.0833 37.0912 35.9856 36.9935C35.8879 36.8958 35.833 36.7633 35.833 36.6252ZM31.3695 54.8544C31.3393 54.8367 31.308 54.821 31.2757 54.8075C31.5212 54.5336 31.6599 54.1805 31.6664 53.8127C31.6665 53.4054 31.5076 53.0142 31.2235 52.7223C30.9395 52.4305 30.5527 52.2611 30.1455 52.2502H29.5882C28.9866 52.2364 28.3941 52.3992 27.8841 52.7186C27.374 53.038 26.9688 53.4998 26.7184 54.0471C26.1412 53.6894 25.4615 53.5336 24.7862 53.6044C24.084 53.6915 23.4303 54.0082 22.9268 54.5054L22.8226 54.6096C22.6257 54.8115 22.4872 55.063 22.4216 55.3373C22.3561 55.6117 22.3661 55.8986 22.4504 56.1678C22.5348 56.4369 22.6904 56.6782 22.9009 56.866C23.1113 57.0538 23.3686 57.1812 23.6455 57.2346L23.5518 57.4012C23.2013 58.0824 22.99 58.8265 22.9301 59.5901C22.8702 60.3538 22.9629 61.1217 23.2028 61.8492C23.4975 62.7631 24.0135 63.59 24.7048 64.2564C25.3961 64.9228 26.2413 65.4081 27.1654 65.6692C28.0895 65.9302 29.0637 65.9588 30.0015 65.7526C30.9393 65.5463 31.8117 65.1116 32.541 64.4869C33.2702 63.8623 33.8339 63.0671 34.1818 62.1722C34.5297 61.2772 34.6511 60.3101 34.5352 59.3569C34.4193 58.4037 34.0696 57.4939 33.5173 56.7084C32.965 55.9229 32.2272 55.286 31.3695 54.8544ZM29.5622 53.2554H30.1195C30.2558 53.2601 30.3848 53.3181 30.4789 53.4169C30.5745 53.516 30.6269 53.649 30.6247 53.7867C30.6224 53.8554 30.6065 53.9231 30.5778 53.9856C30.5492 54.0482 30.5085 54.1045 30.458 54.1512C30.3589 54.2468 30.2259 54.2993 30.0882 54.2971H29.7132C29.06 54.1851 28.3925 54.1851 27.7393 54.2971C27.9203 53.9746 28.1855 53.7074 28.5066 53.524C28.8276 53.3405 29.1925 53.2477 29.5622 53.2554ZM27.2445 55.495C27.6456 55.3636 28.0625 55.2865 28.4841 55.2658L28.2497 56.0054C28.1972 56.1701 28.108 56.3208 27.9889 56.4462C27.8699 56.5716 27.724 56.6684 27.5622 56.7294C27.3397 56.8163 27.0955 56.8309 26.8643 56.771C26.6302 56.7132 26.4171 56.5904 26.2497 56.4169L25.9789 56.1304C26.3651 55.8541 26.7921 55.6397 27.2445 55.495ZM23.5414 55.3231L23.6455 55.2242C23.9818 54.8874 24.4189 54.6697 24.8903 54.6044C25.3029 54.5667 25.7172 54.6557 26.0778 54.8596C25.6442 55.0767 25.24 55.3479 24.8747 55.6669C24.7106 55.7076 24.5599 55.7902 24.4372 55.9065L24.2601 56.0731C24.1587 56.1568 24.0295 56.199 23.8982 56.1913C23.767 56.1837 23.6435 56.1267 23.5526 56.0318C23.4616 55.9369 23.4099 55.8111 23.4079 55.6796C23.4058 55.5482 23.4535 55.4209 23.5414 55.3231ZM30.2028 64.5992C29.1932 64.9331 28.1011 64.9212 27.099 64.5656C26.0968 64.2099 25.2416 63.5306 24.6684 62.6349C24.0952 61.7393 23.8365 60.6782 23.9333 59.6192C24.0301 58.5602 24.4767 57.5636 25.2028 56.7867L25.5049 57.1044C25.8067 57.4255 26.1931 57.6548 26.6195 57.7658C26.7902 57.8064 26.9649 57.8273 27.1403 57.8283C27.4093 57.8298 27.6762 57.7803 27.9268 57.6825C28.2337 57.5653 28.5102 57.3803 28.7357 57.1413C28.9611 56.9023 29.1297 56.6155 29.2289 56.3023L29.5466 55.3179C30.5948 55.5087 31.5495 56.0437 32.2593 56.8383C32.9691 57.6329 33.3935 58.6417 33.4653 59.7047C33.537 60.7678 33.252 61.8244 32.6554 62.7072C32.0588 63.59 31.1847 64.2485 30.1716 64.5783L30.2028 64.5992ZM32.2862 58.87C32.4416 59.3381 32.503 59.8323 32.4669 60.3243C32.4308 60.8162 32.2978 61.2962 32.0757 61.7366C31.8536 62.177 31.5466 62.5691 31.1725 62.8906C30.7983 63.212 30.3644 63.4563 29.8955 63.6096C29.8437 63.6174 29.7911 63.6174 29.7393 63.6096C29.6011 63.631 29.4602 63.5967 29.3474 63.5141C29.2345 63.4316 29.1591 63.3076 29.1377 63.1695C29.1163 63.0313 29.1506 62.8904 29.2332 62.7775C29.3157 62.6647 29.4397 62.5893 29.5778 62.5679C30.2598 62.345 30.8256 61.8606 31.1507 61.221C31.4759 60.5814 31.534 59.8388 31.3122 59.1565C31.2859 59.0902 31.2735 59.0191 31.2758 58.9479C31.278 58.8766 31.2949 58.8065 31.3254 58.742C31.3559 58.6775 31.3993 58.6199 31.4529 58.5729C31.5065 58.5259 31.5692 58.4903 31.6371 58.4685C31.705 58.4467 31.7767 58.4391 31.8477 58.4461C31.9187 58.4532 31.9875 58.4747 32.0498 58.5094C32.1121 58.5441 32.1666 58.5913 32.21 58.6479C32.2533 58.7046 32.2846 58.7695 32.3018 58.8387L32.2862 58.87ZM46.2445 34.594C46.1312 34.5145 45.991 34.4834 45.8548 34.5073C45.7185 34.5312 45.5974 34.6083 45.5179 34.7216C45.4385 34.8348 45.4073 34.975 45.4313 35.1113C45.4552 35.2475 45.5323 35.3687 45.6455 35.4481C45.9225 35.6427 46.1479 35.9019 46.3021 36.2032C46.4564 36.5045 46.5349 36.8388 46.5309 37.1773C46.2477 37.3349 46.0078 37.5599 45.8324 37.8325C45.6571 38.1051 45.5517 38.4167 45.5257 38.7398L45.4789 39.4533C45.4268 40.1766 45.6193 40.8964 46.0255 41.4971C46.4316 42.0979 47.0279 42.5447 47.7185 42.7658H47.7862C48.7752 43.0872 49.8087 43.2507 50.8487 43.2502C51.6975 43.249 52.5427 43.1405 53.3643 42.9273C53.5796 42.8711 53.7727 42.7507 53.9177 42.582C54.0628 42.4132 54.1529 42.2043 54.1761 41.983C54.1993 41.7617 54.1545 41.5386 54.0476 41.3435C53.9407 41.1483 53.7768 40.9904 53.5778 40.8908L51.4216 39.8179C50.4915 39.355 49.7021 38.6519 49.1351 37.7815C48.9661 37.5178 48.7356 37.299 48.4635 37.1439C48.1913 36.9887 47.8857 36.9019 47.5726 36.8908C47.5333 36.434 47.3939 35.9914 47.1644 35.5944C46.9349 35.1975 46.6208 34.8559 46.2445 34.594ZM48.2601 38.3908C48.9288 39.4178 49.8604 40.2469 50.958 40.7919L53.1091 41.8648C53.1195 41.8682 53.1286 41.8748 53.135 41.8837C53.1414 41.8926 53.1449 41.9033 53.1449 41.9143C53.1449 41.9252 53.1414 41.9359 53.135 41.9448C53.1286 41.9537 53.1195 41.9603 53.1091 41.9637C51.4689 42.3941 49.7402 42.3489 48.1247 41.8335H48.057C47.5881 41.6824 47.1832 41.3789 46.9067 40.9712C46.6302 40.5635 46.4979 40.0751 46.5309 39.5835L46.5622 38.8283C46.5743 38.6341 46.6476 38.4486 46.7715 38.2985C46.8955 38.1485 47.0638 38.0415 47.2523 37.9929C47.4408 37.9444 47.6398 37.9567 47.8208 38.0282C48.0019 38.0997 48.1556 38.2266 48.2601 38.3908ZM62.6872 63.9117C62.4867 62.0228 61.7513 60.2304 60.5674 58.745C60.4285 58.5708 60.2397 58.4432 60.0262 58.3792C59.8128 58.3152 59.5849 58.318 59.3731 58.3871C59.1612 58.4562 58.9755 58.5883 58.8409 58.7659C58.7062 58.9434 58.629 59.1578 58.6195 59.3804L58.5414 61.7815C58.4948 62.8199 58.1711 63.827 57.6039 64.6981C57.4331 64.9628 57.3284 65.2647 57.2985 65.5782C57.2686 65.8918 57.3144 66.208 57.432 66.5002C57.0216 66.7171 56.6648 67.0227 56.3873 67.3948C56.1098 67.7669 55.9187 68.1961 55.8278 68.6512C55.8018 68.7866 55.8305 68.9267 55.9077 69.0409C55.9848 69.1552 56.104 69.2342 56.2393 69.2606H56.3382C56.4601 69.2631 56.5789 69.2227 56.6741 69.1466C56.7693 69.0705 56.8347 68.9634 56.8591 68.844C56.9243 68.5191 57.0661 68.2146 57.2726 67.9555C57.4791 67.6964 57.7445 67.4904 58.0466 67.3544C58.3846 67.6131 58.798 67.7539 59.2237 67.7554C59.4544 67.7533 59.6832 67.7128 59.9007 67.6356L60.5726 67.3544C61.2538 67.1087 61.8337 66.643 62.2204 66.0308C62.6072 65.4185 62.7788 64.6948 62.708 63.9742L62.6872 63.9117ZM60.2185 66.396L59.5414 66.6408C59.3693 66.7048 59.182 66.7157 59.0038 66.6721C58.8255 66.6284 58.6644 66.5323 58.5414 66.396C58.4049 66.2444 58.3222 66.052 58.3062 65.8486C58.2902 65.6452 58.3417 65.4422 58.4528 65.271C59.1295 64.2446 59.5197 63.0561 59.583 61.8283L59.6872 59.4273C59.6869 59.4165 59.6904 59.4059 59.6971 59.3973C59.7037 59.3888 59.7131 59.3828 59.7237 59.3804C59.7292 59.3772 59.7355 59.3755 59.7419 59.3755C59.7483 59.3755 59.7546 59.3772 59.7601 59.3804C60.8235 60.7148 61.4848 62.3245 61.6664 64.021V64.0888C61.7187 64.58 61.6043 65.0745 61.3417 65.493C61.0791 65.9114 60.6835 66.2295 60.2185 66.396ZM46.3695 31.2867C46.6419 31.3562 46.9217 31.3929 47.2028 31.396C47.4338 31.4087 47.6649 31.3747 47.8824 31.2959C48.0998 31.2172 48.2992 31.0953 48.4685 30.9377C49.4789 29.9273 48.6143 27.7815 47.8278 27.0002C47.6116 26.7834 47.3546 26.6113 47.0718 26.4939C46.7889 26.3765 46.4856 26.3161 46.1794 26.3161C45.8731 26.3161 45.5699 26.3765 45.287 26.4939C45.0041 26.6113 44.7472 26.7834 44.5309 27.0002C44.0943 27.4377 43.849 28.0305 43.849 28.6486C43.849 29.2668 44.0943 29.8596 44.5309 30.2971C45.0513 30.7756 45.6835 31.1159 46.3695 31.2867ZM45.2653 27.7346C45.509 27.4944 45.8373 27.3598 46.1794 27.3598C46.5215 27.3598 46.8498 27.4944 47.0935 27.7346C47.6924 28.3335 48.1351 29.7867 47.7341 30.2033C47.5673 30.2976 47.3815 30.3531 47.1903 30.3657C46.9992 30.3783 46.8076 30.3478 46.6299 30.2762C46.1251 30.1494 45.6575 29.9049 45.2653 29.5627C45.0252 29.3191 44.8906 28.9907 44.8906 28.6486C44.8906 28.3066 45.0252 27.9782 45.2653 27.7346ZM21.1403 32.8648C21.1403 32.7618 21.1709 32.6611 21.2281 32.5754C21.2853 32.4898 21.3667 32.423 21.4618 32.3836C21.557 32.3442 21.6617 32.3339 21.7628 32.354C21.8638 32.3741 21.9566 32.4237 22.0294 32.4965C22.1023 32.5693 22.1519 32.6621 22.172 32.7632C22.1921 32.8642 22.1818 32.9689 22.1423 33.0641C22.1029 33.1593 22.0362 33.2406 21.9505 33.2978C21.8649 33.3551 21.7642 33.3856 21.6612 33.3856C21.523 33.3856 21.3905 33.3307 21.2929 33.2331C21.1952 33.1354 21.1403 33.0029 21.1403 32.8648Z" fill="#F7C35F"/>
</g>
<defs>
<clipPath id="clip0_3_351">
<rect width="50" height="50" fill="white" transform="translate(20 21)"/>
</clipPath>
</defs>
</svg>
