<svg width="198" height="32" viewBox="0 0 198 32" fill="none" xmlns="http://www.w3.org/2000/svg">
<path d="M18.6729 17.5547C18.6729 18.4629 18.5557 19.2637 18.3213 19.957C18.0967 20.6504 17.7744 21.251 17.3545 21.7588C16.9443 22.2666 16.4561 22.6914 15.8896 23.0332C15.3232 23.375 14.7031 23.6484 14.0293 23.8535C13.3652 24.0586 12.6572 24.2051 11.9053 24.293C11.1631 24.3809 10.4062 24.4248 9.63477 24.4248C8.61914 24.4248 7.68164 24.3467 6.82227 24.1904C5.96289 24.0439 5.15234 23.8096 4.39062 23.4873C3.63867 23.1553 2.91113 22.7305 2.20801 22.2129C1.51465 21.6953 0.821289 21.0654 0.12793 20.3232L3.11621 17.291C3.38965 17.9648 3.76562 18.5898 4.24414 19.166C4.72266 19.7324 5.24512 20.2207 5.81152 20.6309C6.3877 21.041 6.9834 21.3633 7.59863 21.5977C8.21387 21.832 8.79492 21.9492 9.3418 21.9492C9.98633 21.9492 10.5918 21.9053 11.1582 21.8174C11.7246 21.7197 12.2178 21.5635 12.6377 21.3486C13.0576 21.1338 13.3848 20.8506 13.6191 20.499C13.8633 20.1377 13.9854 19.6885 13.9854 19.1514C13.9854 18.7412 13.8926 18.3896 13.707 18.0967C13.5215 17.8037 13.2773 17.5547 12.9746 17.3496C12.6816 17.1348 12.3447 16.9541 11.9639 16.8076C11.583 16.6611 11.1924 16.5391 10.792 16.4414C10.4014 16.334 10.0156 16.2412 9.63477 16.1631C9.25391 16.0752 8.91699 15.9873 8.62402 15.8994C8.04785 15.7334 7.44727 15.5576 6.82227 15.3721C6.19727 15.1768 5.58203 14.957 4.97656 14.7129C4.37109 14.4688 3.79492 14.1904 3.24805 13.8779C2.71094 13.5557 2.2373 13.1797 1.82715 12.75C1.41699 12.3105 1.08984 11.8076 0.845703 11.2412C0.601562 10.665 0.479492 10.0059 0.479492 9.26367C0.479492 8.375 0.586914 7.58887 0.801758 6.90527C1.02637 6.21191 1.33887 5.61133 1.73926 5.10352C2.13965 4.5957 2.61328 4.1709 3.16016 3.8291C3.70703 3.47754 4.30762 3.19922 4.96191 2.99414C5.61621 2.7793 6.30957 2.62793 7.04199 2.54004C7.78418 2.44238 8.54102 2.39355 9.3125 2.39355C10.3672 2.39355 11.3242 2.49121 12.1836 2.68652C13.0527 2.88184 13.8535 3.16016 14.5859 3.52148C15.3184 3.88281 15.9873 4.31738 16.5928 4.8252C17.208 5.32324 17.7842 5.87988 18.3213 6.49512L15.333 9.52734C15.0986 8.82422 14.7715 8.18945 14.3516 7.62305C13.9414 7.05664 13.4824 6.57324 12.9746 6.17285C12.4668 5.7627 11.9346 5.4502 11.3779 5.23535C10.8213 5.01074 10.2842 4.89844 9.7666 4.89844C9.09277 4.89844 8.47266 4.94727 7.90625 5.04492C7.33984 5.13281 6.85156 5.28418 6.44141 5.49902C6.04102 5.7041 5.72852 5.9873 5.50391 6.34863C5.2793 6.7002 5.16699 7.13965 5.16699 7.66699C5.16699 8.08691 5.25 8.44336 5.41602 8.73633C5.58203 9.0293 5.80176 9.27832 6.0752 9.4834C6.3584 9.68848 6.67578 9.85938 7.02734 9.99609C7.37891 10.123 7.74023 10.2354 8.11133 10.333C8.49219 10.4307 8.86328 10.5186 9.22461 10.5967C9.5957 10.665 9.93262 10.7432 10.2354 10.8311C10.8213 10.9971 11.4365 11.1729 12.0811 11.3584C12.7256 11.5439 13.3604 11.7637 13.9854 12.0176C14.6104 12.2617 15.2061 12.5449 15.7725 12.8672C16.3389 13.1895 16.8369 13.5752 17.2666 14.0244C17.6963 14.4639 18.0381 14.9766 18.292 15.5625C18.5459 16.1387 18.6729 16.8027 18.6729 17.5547Z" fill="white"/>
<path d="M47.9258 14.127C47.9258 15.2891 47.7891 16.5 47.5156 17.7598C47.2422 19.0195 46.8564 20.25 46.3584 21.4512C45.8701 22.6426 45.2793 23.7705 44.5859 24.835C43.8926 25.8994 43.1211 26.8223 42.2715 27.6035L40.4111 26.5928C40.6943 26.085 40.9531 25.5137 41.1875 24.8789C41.4219 24.2441 41.6367 23.5752 41.832 22.8721C42.0273 22.1689 42.1982 21.4463 42.3447 20.7041C42.4912 19.9619 42.6133 19.2246 42.7109 18.4922C42.8184 17.75 42.8965 17.0322 42.9453 16.3389C42.9941 15.6455 43.0186 14.9961 43.0186 14.3906C43.0186 14.0488 43.0088 13.6777 42.9893 13.2773C42.9697 12.877 42.9258 12.4766 42.8574 12.0762C42.7988 11.6758 42.7061 11.2949 42.5791 10.9336C42.4521 10.5625 42.2764 10.2354 42.0518 9.95215C41.8369 9.65918 41.5635 9.42969 41.2314 9.26367C40.9092 9.08789 40.5186 9 40.0596 9C39.6104 9 39.2246 9.12207 38.9023 9.36621C38.5898 9.60059 38.3213 9.9082 38.0967 10.2891C37.8721 10.6699 37.6914 11.0996 37.5547 11.5781C37.4277 12.0566 37.3301 12.54 37.2617 13.0283C37.1934 13.5068 37.1445 13.9658 37.1152 14.4053C37.0957 14.8447 37.0859 15.2158 37.0859 15.5186V24H32.1494V16.1191C32.1494 15.7773 32.1543 15.3672 32.1641 14.8887C32.1738 14.4004 32.1592 13.8926 32.1201 13.3652C32.0908 12.8379 32.0273 12.3154 31.9297 11.7979C31.8418 11.2705 31.6953 10.8018 31.4902 10.3916C31.2949 9.98145 31.0264 9.64941 30.6846 9.39551C30.3428 9.13184 29.9131 9 29.3955 9C28.9561 9 28.585 9.12207 28.2822 9.36621C27.9893 9.61035 27.7402 9.92773 27.5352 10.3184C27.3398 10.6992 27.1836 11.1338 27.0664 11.6221C26.959 12.1006 26.876 12.584 26.8174 13.0723C26.7686 13.5508 26.7393 14.0098 26.7295 14.4492C26.7197 14.8789 26.7148 15.2354 26.7148 15.5186V24H21.749V7.08105H23.6533L25.4697 11.0215C25.8799 9.6543 26.5244 8.58984 27.4033 7.82812C28.292 7.05664 29.4688 6.6709 30.9336 6.6709C32.252 6.6709 33.3457 6.94434 34.2148 7.49121C35.084 8.03809 35.7676 8.92676 36.2656 10.1572C36.5488 9.62012 36.8613 9.13672 37.2031 8.70703C37.5547 8.27734 37.9404 7.91113 38.3604 7.6084C38.79 7.30566 39.2637 7.07617 39.7812 6.91992C40.2988 6.75391 40.8701 6.6709 41.4951 6.6709C42.6475 6.6709 43.6289 6.86133 44.4395 7.24219C45.2598 7.61328 45.9287 8.13086 46.4463 8.79492C46.9639 9.45898 47.3398 10.25 47.5742 11.168C47.8086 12.0762 47.9258 13.0625 47.9258 14.127Z" fill="white"/>
<path d="M68.2578 24H63.3066V21.9785C62.7207 22.7793 62.0127 23.375 61.1826 23.7656C60.3623 24.1465 59.459 24.3369 58.4727 24.3369C57.1836 24.3369 56.0312 24.1074 55.0156 23.6484C54 23.1895 53.1406 22.5645 52.4375 21.7734C51.7344 20.9727 51.1973 20.0352 50.8262 18.9609C50.4551 17.8867 50.2695 16.7344 50.2695 15.5039C50.2695 14.2734 50.4551 13.1211 50.8262 12.0469C51.1973 10.9727 51.7344 10.04 52.4375 9.24902C53.1406 8.44824 54 7.81836 55.0156 7.35938C56.0312 6.90039 57.1836 6.6709 58.4727 6.6709C59.127 6.6709 59.7471 6.76855 60.333 6.96387C60.9287 7.15918 61.4707 7.4375 61.959 7.79883C62.457 8.15039 62.8916 8.58008 63.2627 9.08789C63.6436 9.58594 63.9414 10.1426 64.1562 10.7578L66.3535 7.08105H68.2578V24ZM63.2773 15.5039C63.2773 15.0645 63.2529 14.6006 63.2041 14.1123C63.165 13.624 63.0918 13.1406 62.9844 12.6621C62.877 12.1836 62.7256 11.7295 62.5303 11.2998C62.3447 10.8604 62.1006 10.4746 61.7979 10.1426C61.5049 9.80078 61.1484 9.53223 60.7285 9.33691C60.3086 9.1416 59.8203 9.04395 59.2637 9.04395C58.707 9.04395 58.2236 9.14648 57.8135 9.35156C57.4033 9.54688 57.0518 9.81543 56.7588 10.1572C56.4658 10.4893 56.2217 10.875 56.0264 11.3145C55.8408 11.7539 55.6943 12.2129 55.5869 12.6914C55.4795 13.1699 55.4014 13.6533 55.3525 14.1416C55.3135 14.6201 55.2939 15.0742 55.2939 15.5039C55.2939 15.9336 55.3135 16.3926 55.3525 16.8809C55.4014 17.3691 55.4795 17.8525 55.5869 18.3311C55.6943 18.8096 55.8408 19.2686 56.0264 19.708C56.2217 20.1475 56.4658 20.5381 56.7588 20.8799C57.0518 21.2119 57.4033 21.4805 57.8135 21.6855C58.2236 21.8809 58.707 21.9785 59.2637 21.9785C59.7715 21.9785 60.2207 21.876 60.6113 21.6709C61.0117 21.4561 61.3584 21.1729 61.6514 20.8213C61.9541 20.4697 62.208 20.0693 62.4131 19.6201C62.6182 19.1709 62.7842 18.707 62.9111 18.2285C63.0381 17.75 63.1309 17.2764 63.1895 16.8076C63.248 16.3291 63.2773 15.8945 63.2773 15.5039Z" fill="white"/>
<path d="M86.7881 8.5752L84.0049 13.1895C83.8877 12.7988 83.7363 12.3594 83.5508 11.8711C83.3652 11.3828 83.1357 10.9287 82.8623 10.5088C82.5889 10.0791 82.2617 9.72266 81.8809 9.43945C81.5 9.14648 81.0605 9 80.5625 9C80.1035 9 79.7031 9.11719 79.3613 9.35156C79.0293 9.58594 78.7461 9.89355 78.5117 10.2744C78.2773 10.6455 78.082 11.0703 77.9258 11.5488C77.7793 12.0176 77.6621 12.4961 77.5742 12.9844C77.4961 13.4629 77.4424 13.9268 77.4131 14.376C77.3838 14.8154 77.3691 15.1963 77.3691 15.5186V24H72.4033V7.08105H74.3076L76.3145 11.0215C76.5879 10.3867 76.9004 9.80566 77.252 9.27832C77.6035 8.74121 78.0088 8.28223 78.4678 7.90137C78.9268 7.51074 79.4443 7.20801 80.0205 6.99316C80.6064 6.77832 81.2656 6.6709 81.998 6.6709C82.3789 6.6709 82.8037 6.70508 83.2725 6.77344C83.7412 6.83203 84.2002 6.93945 84.6494 7.0957C85.0986 7.24219 85.5137 7.4375 85.8945 7.68164C86.2754 7.92578 86.5732 8.22363 86.7881 8.5752Z" fill="white"/>
<path d="M95.2402 24H90.2744V9.04395H87.1982V7.08105H90.2744V0.855469H95.2402V7.08105H100.367V9.04395H95.2402V24Z" fill="white"/>
<path d="M131.568 13.9072V14.1855C131.549 15.0059 131.461 15.8555 131.305 16.7344C131.158 17.6133 130.948 18.4922 130.675 19.3711C130.401 20.25 130.074 21.1191 129.693 21.9785C129.312 22.8379 128.883 23.6582 128.404 24.4395C127.936 25.2305 127.428 25.9678 126.881 26.6514C126.334 27.3447 125.758 27.9551 125.152 28.4824L122.97 27.2227C123.312 26.6465 123.619 26.0166 123.893 25.333C124.176 24.6592 124.43 23.9512 124.654 23.209C124.879 22.4668 125.069 21.7051 125.226 20.9238C125.392 20.1426 125.528 19.3662 125.636 18.5947C125.743 17.8232 125.821 17.0664 125.87 16.3242C125.929 15.5723 125.958 14.8594 125.958 14.1855C125.958 13.6582 125.953 13.0625 125.943 12.3984C125.943 11.7246 125.904 11.041 125.826 10.3477C125.758 9.6543 125.641 8.98047 125.475 8.32617C125.309 7.66211 125.06 7.07129 124.728 6.55371C124.405 6.03613 123.985 5.62109 123.468 5.30859C122.96 4.99609 122.325 4.83984 121.563 4.83984C120.89 4.83984 120.309 4.95703 119.82 5.19141C119.342 5.41602 118.932 5.72363 118.59 6.11426C118.258 6.49512 117.989 6.93945 117.784 7.44727C117.589 7.95508 117.433 8.49219 117.315 9.05859C117.208 9.61523 117.135 10.1816 117.096 10.7578C117.066 11.3242 117.052 11.8613 117.052 12.3691V16.4561H123.365V18.873H117.052V24H111.236V13.2773C111.236 11.7441 111.48 10.3184 111.969 9C112.457 7.68164 113.146 6.53906 114.034 5.57227C114.933 4.5957 116.007 3.83398 117.257 3.28711C118.517 2.73047 119.918 2.45215 121.461 2.45215C122.506 2.45215 123.482 2.60352 124.391 2.90625C125.309 3.19922 126.144 3.60938 126.896 4.13672C127.647 4.6543 128.316 5.27441 128.902 5.99707C129.498 6.70996 129.991 7.49121 130.382 8.34082C130.782 9.19043 131.085 10.0889 131.29 11.0361C131.495 11.9834 131.588 12.9404 131.568 13.9072Z" fill="white"/>
<path d="M151.93 21.9639C151.93 23.3115 151.729 24.5811 151.329 25.7725C150.929 26.9639 150.348 28.0039 149.586 28.8926C148.824 29.791 147.887 30.499 146.773 31.0166C145.67 31.5439 144.41 31.8076 142.994 31.8076C142.213 31.8076 141.422 31.7197 140.621 31.5439C139.83 31.3682 139.078 31.0947 138.365 30.7236C137.662 30.3623 137.027 29.8984 136.461 29.332C135.904 28.7754 135.465 28.1162 135.143 27.3545L137.281 26.5488C137.467 27.0273 137.706 27.4668 137.999 27.8672C138.302 28.2676 138.648 28.6094 139.039 28.8926C139.43 29.1855 139.859 29.4102 140.328 29.5664C140.797 29.7324 141.29 29.8154 141.808 29.8154C142.784 29.8154 143.6 29.6152 144.254 29.2148C144.918 28.8145 145.45 28.292 145.851 27.6475C146.251 27.0029 146.539 26.2705 146.715 25.4502C146.891 24.6396 146.979 23.8145 146.979 22.9746V21.9785C146.393 22.7793 145.685 23.375 144.854 23.7656C144.034 24.1465 143.131 24.3369 142.145 24.3369C140.855 24.3369 139.703 24.1074 138.688 23.6484C137.672 23.1895 136.812 22.5645 136.109 21.7734C135.406 20.9727 134.869 20.0352 134.498 18.9609C134.127 17.8867 133.941 16.7344 133.941 15.5039C133.941 14.2734 134.127 13.1211 134.498 12.0469C134.869 10.9727 135.406 10.04 136.109 9.24902C136.812 8.44824 137.672 7.81836 138.688 7.35938C139.703 6.90039 140.855 6.6709 142.145 6.6709C142.799 6.6709 143.419 6.76855 144.005 6.96387C144.601 7.15918 145.143 7.4375 145.631 7.79883C146.129 8.15039 146.563 8.58008 146.935 9.08789C147.315 9.58594 147.613 10.1426 147.828 10.7578L150.025 7.08105H151.93V21.9639ZM146.949 15.5039C146.949 15.0645 146.925 14.6006 146.876 14.1123C146.837 13.624 146.764 13.1406 146.656 12.6621C146.549 12.1836 146.397 11.7295 146.202 11.2998C146.017 10.8604 145.772 10.4746 145.47 10.1426C145.177 9.80078 144.82 9.53223 144.4 9.33691C143.98 9.1416 143.492 9.04395 142.936 9.04395C142.379 9.04395 141.896 9.14648 141.485 9.35156C141.075 9.54688 140.724 9.81543 140.431 10.1572C140.138 10.4893 139.894 10.875 139.698 11.3145C139.513 11.7539 139.366 12.2129 139.259 12.6914C139.151 13.1699 139.073 13.6533 139.024 14.1416C138.985 14.6201 138.966 15.0742 138.966 15.5039C138.966 15.9336 138.985 16.3926 139.024 16.8809C139.073 17.3691 139.151 17.8525 139.259 18.3311C139.366 18.8096 139.513 19.2686 139.698 19.708C139.894 20.1475 140.138 20.5381 140.431 20.8799C140.724 21.2119 141.075 21.4805 141.485 21.6855C141.896 21.8809 142.379 21.9785 142.936 21.9785C143.443 21.9785 143.893 21.876 144.283 21.6709C144.684 21.4561 145.03 21.1729 145.323 20.8213C145.626 20.4697 145.88 20.0693 146.085 19.6201C146.29 19.1709 146.456 18.707 146.583 18.2285C146.71 17.75 146.803 17.2764 146.861 16.8076C146.92 16.3291 146.949 15.8945 146.949 15.5039Z" fill="white"/>
<path d="M170.46 8.5752L167.677 13.1895C167.56 12.7988 167.408 12.3594 167.223 11.8711C167.037 11.3828 166.808 10.9287 166.534 10.5088C166.261 10.0791 165.934 9.72266 165.553 9.43945C165.172 9.14648 164.732 9 164.234 9C163.775 9 163.375 9.11719 163.033 9.35156C162.701 9.58594 162.418 9.89355 162.184 10.2744C161.949 10.6455 161.754 11.0703 161.598 11.5488C161.451 12.0176 161.334 12.4961 161.246 12.9844C161.168 13.4629 161.114 13.9268 161.085 14.376C161.056 14.8154 161.041 15.1963 161.041 15.5186V24H156.075V7.08105H157.979L159.986 11.0215C160.26 10.3867 160.572 9.80566 160.924 9.27832C161.275 8.74121 161.681 8.28223 162.14 7.90137C162.599 7.51074 163.116 7.20801 163.692 6.99316C164.278 6.77832 164.938 6.6709 165.67 6.6709C166.051 6.6709 166.476 6.70508 166.944 6.77344C167.413 6.83203 167.872 6.93945 168.321 7.0957C168.771 7.24219 169.186 7.4375 169.566 7.68164C169.947 7.92578 170.245 8.22363 170.46 8.5752Z" fill="white"/>
<path d="M189.972 15.5039C189.972 16.3828 189.854 17.208 189.62 17.9795C189.386 18.751 189.059 19.4639 188.639 20.1182C188.229 20.7725 187.73 21.3633 187.145 21.8906C186.559 22.4082 185.914 22.8477 185.211 23.209C184.518 23.5703 183.771 23.8486 182.97 24.0439C182.179 24.2393 181.363 24.3369 180.523 24.3369C179.684 24.3369 178.868 24.2393 178.077 24.0439C177.286 23.8486 176.539 23.5703 175.836 23.209C175.143 22.8477 174.503 22.4082 173.917 21.8906C173.331 21.3633 172.828 20.7725 172.408 20.1182C171.998 19.4639 171.676 18.751 171.441 17.9795C171.207 17.1982 171.09 16.373 171.09 15.5039C171.09 14.6348 171.207 13.8145 171.441 13.043C171.676 12.2617 171.998 11.5439 172.408 10.8896C172.828 10.2354 173.331 9.64941 173.917 9.13184C174.503 8.60449 175.143 8.16016 175.836 7.79883C176.539 7.4375 177.286 7.15918 178.077 6.96387C178.868 6.76855 179.684 6.6709 180.523 6.6709C181.363 6.6709 182.179 6.76855 182.97 6.96387C183.771 7.15918 184.518 7.4375 185.211 7.79883C185.914 8.16016 186.559 8.60449 187.145 9.13184C187.73 9.64941 188.229 10.2354 188.639 10.8896C189.059 11.5439 189.386 12.2617 189.62 13.043C189.854 13.8145 189.972 14.6348 189.972 15.5039ZM184.933 15.5039C184.933 15.0352 184.903 14.542 184.845 14.0244C184.796 13.4971 184.708 12.9844 184.581 12.4863C184.454 11.9785 184.278 11.4951 184.054 11.0361C183.839 10.5674 183.57 10.1621 183.248 9.82031C182.926 9.46875 182.54 9.19043 182.091 8.98535C181.642 8.77051 181.119 8.66309 180.523 8.66309C179.957 8.66309 179.454 8.77051 179.015 8.98535C178.575 9.2002 178.189 9.48828 177.857 9.84961C177.535 10.2012 177.262 10.6113 177.037 11.0801C176.822 11.5488 176.646 12.0371 176.51 12.5449C176.373 13.043 176.275 13.5508 176.217 14.0684C176.158 14.5762 176.129 15.0547 176.129 15.5039C176.129 15.9531 176.158 16.4365 176.217 16.9541C176.275 17.4619 176.373 17.9697 176.51 18.4775C176.646 18.9854 176.822 19.4736 177.037 19.9424C177.262 20.4014 177.535 20.8115 177.857 21.1729C178.189 21.5244 178.575 21.8076 179.015 22.0225C179.454 22.2373 179.957 22.3447 180.523 22.3447C181.109 22.3447 181.627 22.2422 182.076 22.0371C182.525 21.8223 182.911 21.5391 183.233 21.1875C183.565 20.8359 183.839 20.4307 184.054 19.9717C184.269 19.5127 184.439 19.0293 184.566 18.5215C184.703 18.0137 184.796 17.501 184.845 16.9834C184.903 16.4658 184.933 15.9727 184.933 15.5039Z" fill="white"/>
<path d="M197.589 21.8027C197.589 22.1738 197.521 22.5254 197.384 22.8574C197.247 23.1797 197.057 23.4629 196.812 23.707C196.568 23.9414 196.285 24.127 195.963 24.2637C195.641 24.4102 195.294 24.4834 194.923 24.4834C194.552 24.4834 194.205 24.4102 193.883 24.2637C193.561 24.127 193.277 23.9414 193.033 23.707C192.789 23.4629 192.599 23.1797 192.462 22.8574C192.325 22.5254 192.257 22.1738 192.257 21.8027C192.257 21.4414 192.325 21.0996 192.462 20.7773C192.599 20.4453 192.789 20.1621 193.033 19.9277C193.277 19.6836 193.561 19.4932 193.883 19.3564C194.205 19.21 194.552 19.1367 194.923 19.1367C195.294 19.1367 195.641 19.21 195.963 19.3564C196.285 19.4932 196.568 19.6836 196.812 19.9277C197.057 20.1621 197.247 20.4453 197.384 20.7773C197.521 21.0996 197.589 21.4414 197.589 21.8027Z" fill="white"/>
</svg>
