<svg width="215" height="30" viewBox="0 0 215 30" fill="none" xmlns="http://www.w3.org/2000/svg">
<path fill-rule="evenodd" clip-rule="evenodd" d="M38.2232 12.0447C35.876 12.484 33.673 13.12 31.6864 14.0116C31.47 14.11 31.4044 14.2476 31.3847 14.3067C31.3519 14.4116 31.3651 14.51 31.4175 14.6017C31.4503 14.6608 31.5028 14.7329 31.6142 14.7788C31.6929 14.8116 31.8962 14.8378 32.165 14.8312C32.6239 14.8247 33.3321 14.7722 33.673 14.7722C34.8401 14.7853 36.0071 14.7787 37.1742 14.7984C40.8917 14.864 41.5408 14.9164 46.3205 14.8771C51.9001 14.8312 57.4928 14.7525 63.079 14.6345C45.3239 15.618 27.5951 16.7654 9.95805 17.8341C9.76135 17.8472 9.61055 18.0177 9.62366 18.2144C9.63022 18.4177 9.80722 18.5685 10.0039 18.5554C51.1592 16.0639 92.7669 13.1265 134.237 12.9364C136.283 12.9823 138.322 13.0281 140.354 13.074C152.634 13.3625 164.921 13.71 177.189 14.2477C181.181 14.4247 185.174 14.6214 189.174 14.805C190.354 14.8574 191.541 14.9099 192.728 14.9623C193.685 15.0016 196.15 15.1459 196.498 15.1525C196.812 15.159 196.891 14.8771 196.897 14.864C196.917 14.7722 196.904 14.6673 196.825 14.5689C196.806 14.5427 196.753 14.4706 196.635 14.4378C196.616 14.4378 196.524 14.4247 196.334 14.405C186.473 13.5986 176.585 13.0413 166.679 12.6872C168.009 12.7003 169.34 12.7069 170.671 12.72C180.932 12.7987 191.22 13.0806 201.474 12.72C203.808 12.6414 206.149 12.5495 208.476 12.4381C210.043 12.3659 214.076 12.4577 214.646 12.2873C214.908 12.2152 214.967 12.0316 214.974 11.9398C214.98 11.8349 214.961 11.7168 214.843 11.6119C214.79 11.5595 214.626 11.4743 214.318 11.4087C204.254 9.2254 192.478 9.84167 182.231 9.23191C154.398 7.56 126.664 8.67466 98.8382 9.69092C74.8216 10.5695 50.8051 10.6154 26.8017 11.8087C18.016 12.2414 8.95491 11.7431 0.29375 13.3954C0.0970545 13.4347 -0.027561 13.6182 0.00522161 13.8149C0.0445607 14.0116 0.234716 14.1428 0.431411 14.1034C9.05323 12.4578 18.0816 12.9626 26.8345 12.5299C30.6307 12.3397 34.427 12.1824 38.2232 12.0447ZM112.476 12.5299C97.7695 12.3004 83.0633 12.1823 68.3439 12.2545C58.2468 12.3004 43.534 10.3794 33.5025 14.051C33.5746 14.051 33.6336 14.051 33.6861 14.051C34.8531 14.0641 36.0202 14.051 37.1873 14.0772C40.8983 14.1428 41.5473 14.1952 46.3139 14.1559C58.5025 14.051 70.7239 13.7887 82.9059 13.3822C92.7734 13.0544 102.628 12.7593 112.476 12.5299ZM211.958 11.684C202.444 10.0187 191.659 10.5171 182.185 9.95319C154.378 8.28128 126.664 9.39586 98.8644 10.4121C86.4398 10.8711 74.0218 11.1005 61.6103 11.3825C63.9903 11.4743 66.2655 11.5398 68.3439 11.5333C89.3837 11.4284 110.417 11.7103 131.457 12.1562C144.524 11.9595 157.591 11.8874 170.678 11.9923C180.932 12.0775 191.2 12.3529 201.454 11.9988C203.782 11.9201 206.116 11.8283 208.443 11.7169C209.237 11.6841 210.673 11.6906 211.958 11.684Z" fill="#F7C35F"/>
</svg>
