<svg width="55" height="60" viewBox="0 0 55 60" fill="none" xmlns="http://www.w3.org/2000/svg">
<path d="M15 20C17.0711 20 18.75 18.8807 18.75 17.5C18.75 16.1193 17.0711 15 15 15C12.9289 15 11.25 16.1193 11.25 17.5C11.25 18.8807 12.9289 20 15 20Z" fill="#39285E"/>
<path d="M28.75 23.75C28.75 26.4695 27.9436 29.1279 26.4327 31.3891C24.9218 33.6503 22.7744 35.4126 20.2619 36.4533C17.7494 37.494 14.9848 37.7663 12.3175 37.2358C9.65028 36.7053 7.20026 35.3957 5.27729 33.4727C3.35432 31.5497 2.04476 29.0997 1.51421 26.4325C0.983662 23.7653 1.25596 21.0006 2.29666 18.4881C3.33737 15.9756 5.09974 13.8282 7.36092 12.3173C9.62209 10.8064 12.2805 10 15 10C16.806 9.99902 18.5944 10.354 20.2631 11.0447C21.9317 11.7353 23.4479 12.7481 24.7249 14.0251C26.0019 15.3021 27.0147 16.8183 27.7054 18.4869C28.396 20.1556 28.751 21.944 28.75 23.75ZM18.75 17.5C18.75 16.125 17.075 15 15 15C12.925 15 11.25 16.125 11.25 17.5C11.25 18.875 12.925 20 15 20C17.075 20 18.75 18.875 18.75 17.5Z" fill="#6F60BA"/>
<path d="M40 28.75C42.0711 28.75 43.75 27.6307 43.75 26.25C43.75 24.8693 42.0711 23.75 40 23.75C37.9289 23.75 36.25 24.8693 36.25 26.25C36.25 27.6307 37.9289 28.75 40 28.75Z" fill="#39285E"/>
<path d="M40 18.75C42.7195 18.75 45.3779 19.5564 47.6391 21.0673C49.9003 22.5782 51.6626 24.7256 52.7033 27.2381C53.744 29.7506 54.0163 32.5153 53.4858 35.1825C52.9553 37.8497 51.6457 40.2997 49.7227 42.2227C47.7997 44.1457 45.3497 45.4553 42.6825 45.9858C40.0153 46.5163 37.2506 46.244 34.7381 45.2033C32.2256 44.1626 30.0782 42.4003 28.5673 40.1391C27.0564 37.8779 26.25 35.2195 26.25 32.5C26.249 30.694 26.604 28.9056 27.2946 27.2369C27.9853 25.5683 28.9981 24.0521 30.2751 22.7751C31.5521 21.4981 33.0683 20.4853 34.7369 19.7947C36.4056 19.104 38.194 18.749 40 18.75ZM43.75 26.25C43.75 24.875 42.075 23.75 40 23.75C37.925 23.75 36.25 24.875 36.25 26.25C36.25 27.625 37.925 28.75 40 28.75C42.075 28.75 43.75 27.625 43.75 26.25Z" fill="#7E6DD4"/>
<path d="M7.5 48.75C8.88071 48.75 10 47.0711 10 45C10 42.9289 8.88071 41.25 7.5 41.25C6.11929 41.25 5 42.9289 5 45C5 47.0711 6.11929 48.75 7.5 48.75Z" fill="#39285E"/>
<path d="M15 31.25C17.7195 31.25 20.3779 32.0564 22.6391 33.5673C24.9003 35.0782 26.6626 37.2256 27.7033 39.7381C28.744 42.2506 29.0163 45.0153 28.4858 47.6825C27.9553 50.3497 26.6457 52.7997 24.7227 54.7227C22.7997 56.6457 20.3497 57.9553 17.6825 58.4858C15.0153 59.0163 12.2506 58.744 9.7381 57.7033C7.22562 56.6626 5.07816 54.9003 3.56729 52.6391C2.05643 50.3779 1.25 47.7195 1.25 45C1.24902 43.194 1.604 41.4056 2.29465 39.7369C2.9853 38.0683 3.99808 36.5521 5.27509 35.2751C6.55209 33.9981 8.06827 32.9853 9.73694 32.2946C11.4056 31.604 13.194 31.249 15 31.25ZM10 45C10 42.925 8.875 41.25 7.5 41.25C6.125 41.25 5 42.925 5 45C5 47.075 6.125 48.75 7.5 48.75C8.875 48.75 10 47.075 10 45Z" fill="#7E6DD4"/>
<path d="M28.75 23.6325C29.1475 23.7125 29.375 23.75 29.375 23.75L29.4088 23.7288C29.6213 23.4713 29.8512 23.2287 30.0825 22.9875C30.9802 21.3453 31.3856 19.4791 31.25 17.6125C31.25 17.6125 31.25 4.3125 18.125 1.25C17.0697 4.07592 16.4787 7.054 16.375 10.0688C19.7475 10.4051 22.8767 11.9761 25.161 14.4799C27.4453 16.9836 28.7236 20.2434 28.75 23.6325Z" fill="#4E8C00"/>
<path d="M40 18.75C43.5678 18.7479 46.9955 20.1382 49.5538 22.625C50.4633 21.8274 51.1954 20.848 51.7029 19.7499C52.2103 18.6518 52.4819 17.4595 52.5 16.25C52.5 6.25 50 1.25 50 1.25C45.8105 6.72853 42.1681 12.6045 39.125 18.7938C39.415 18.7763 39.705 18.75 40 18.75Z" fill="#63B300"/>
<path d="M50 1.25C33.8175 4.7175 32.6 18.8638 32.5087 20.9763C34.4885 19.6893 36.768 18.9374 39.125 18.7938C42.168 12.6045 45.8104 6.72853 50 1.25Z" fill="#4E8C00"/>
<path d="M40 28.75C42.0711 28.75 43.75 27.6307 43.75 26.25C43.75 24.8693 42.0711 23.75 40 23.75C37.9289 23.75 36.25 24.8693 36.25 26.25C36.25 27.6307 37.9289 28.75 40 28.75Z" fill="#39285E"/>
<path d="M40 18.75C42.7195 18.75 45.3779 19.5564 47.6391 21.0673C49.9003 22.5782 51.6626 24.7256 52.7033 27.2381C53.744 29.7506 54.0163 32.5153 53.4858 35.1825C52.9553 37.8497 51.6457 40.2997 49.7227 42.2227C47.7997 44.1457 45.3497 45.4553 42.6825 45.9858C40.0153 46.5163 37.2506 46.244 34.7381 45.2033C32.2256 44.1626 30.0782 42.4003 28.5673 40.1391C27.0564 37.8779 26.25 35.2195 26.25 32.5C26.249 30.694 26.604 28.9056 27.2946 27.2369C27.9853 25.5683 28.9981 24.0521 30.2751 22.7751C31.5521 21.4981 33.0683 20.4853 34.7369 19.7947C36.4056 19.104 38.194 18.749 40 18.75ZM43.75 26.25C43.75 24.875 42.075 23.75 40 23.75C37.925 23.75 36.25 24.875 36.25 26.25C36.25 27.625 37.925 28.75 40 28.75C42.075 28.75 43.75 27.625 43.75 26.25Z" fill="#7E6DD4"/>
<path d="M40 18.75C37.2805 18.75 34.6221 19.5564 32.3609 21.0673C30.0997 22.5782 28.3374 24.7256 27.2967 27.2381C26.256 29.7506 25.9837 32.5153 26.5142 35.1825C27.0448 37.8497 28.3543 40.2997 30.2773 42.2227C32.2003 44.1457 34.6503 45.4553 37.3175 45.9858C39.9848 46.5163 42.7494 46.244 45.2619 45.2033C47.7744 44.1626 49.9218 42.4003 51.4327 40.1391C52.9436 37.8779 53.75 35.2195 53.75 32.5C53.751 30.694 53.396 28.9056 52.7054 27.2369C52.0147 25.5683 51.0019 24.0521 49.7249 22.7751C48.4479 21.4981 46.9317 20.4853 45.2631 19.7947C43.5944 19.104 41.806 18.749 40 18.75ZM40 40C33.0913 40 27.5 35.5275 27.5 30C27.5 24.4725 33.0913 20 40 20C46.9088 20 52.5 24.4725 52.5 30C52.5 35.5275 46.9088 40 40 40Z" fill="#5F4A9E"/>
<path d="M40 31.25C44.8325 31.25 48.75 28.7316 48.75 25.625C48.75 22.5184 44.8325 20 40 20C35.1675 20 31.25 22.5184 31.25 25.625C31.25 28.7316 35.1675 31.25 40 31.25Z" fill="#9883FF"/>
<path d="M40 30C42.7614 30 45 28.3211 45 26.25C45 24.1789 42.7614 22.5 40 22.5C37.2386 22.5 35 24.1789 35 26.25C35 28.3211 37.2386 30 40 30Z" fill="#5F4A9E"/>
<path d="M40 28.75C42.0711 28.75 43.75 27.6307 43.75 26.25C43.75 24.8693 42.0711 23.75 40 23.75C37.9289 23.75 36.25 24.8693 36.25 26.25C36.25 27.6307 37.9289 28.75 40 28.75Z" fill="#39285E"/>
<path d="M40 25C40.7189 24.9345 41.4415 25.0762 42.0824 25.4085C42.7233 25.7408 43.2555 26.2497 43.6163 26.875C43.6997 26.6769 43.7451 26.4649 43.75 26.25C43.75 24.875 42.075 23.75 40 23.75C37.925 23.75 36.25 24.875 36.25 26.25C36.2549 26.4649 36.3003 26.6769 36.3838 26.875C36.7445 26.2497 37.2767 25.7408 37.9176 25.4085C38.5585 25.0762 39.2811 24.9345 40 25Z" fill="#261647"/>
<path d="M49.4075 27.5062C49.3175 27.5193 49.2299 27.5454 49.1475 27.5837C48.4525 27.8962 48.0425 28.8337 47.5475 29.3825C46.1896 30.8842 44.4141 31.9463 42.4487 32.4325C42.232 32.4501 42.0213 32.5124 41.8298 32.6154C41.6384 32.7184 41.4703 32.86 41.3362 33.0312C41.2534 33.229 41.2375 33.4484 41.291 33.656C41.3444 33.8637 41.4644 34.0481 41.6325 34.1812C41.9742 34.4358 42.3736 34.6019 42.795 34.665C44.3654 35.1032 46.0253 35.1067 47.5975 34.675C48.3505 34.408 49.0408 33.9897 49.626 33.4458C50.2112 32.9019 50.6788 32.244 51 31.5125C51.2007 31.0437 51.2757 30.5307 51.2176 30.0241C51.1595 29.5176 50.9703 29.0349 50.6687 28.6237C50.355 28.1062 50.0075 27.4262 49.4075 27.5062Z" fill="#9883FF"/>
<path d="M15 20C17.0711 20 18.75 18.8807 18.75 17.5C18.75 16.1193 17.0711 15 15 15C12.9289 15 11.25 16.1193 11.25 17.5C11.25 18.8807 12.9289 20 15 20Z" fill="#39285E"/>
<path d="M28.75 23.75C28.75 26.4695 27.9436 29.1279 26.4327 31.3891C24.9218 33.6503 22.7744 35.4126 20.2619 36.4533C17.7494 37.494 14.9848 37.7663 12.3175 37.2358C9.65028 36.7053 7.20026 35.3957 5.27729 33.4727C3.35432 31.5497 2.04476 29.0997 1.51421 26.4325C0.983662 23.7653 1.25596 21.0006 2.29666 18.4881C3.33737 15.9756 5.09974 13.8282 7.36092 12.3173C9.62209 10.8064 12.2805 10 15 10C16.806 9.99902 18.5944 10.354 20.2631 11.0447C21.9317 11.7353 23.4479 12.7481 24.7249 14.0251C26.0019 15.3021 27.0147 16.8183 27.7054 18.4869C28.396 20.1556 28.751 21.944 28.75 23.75ZM18.75 17.5C18.75 16.125 17.075 15 15 15C12.925 15 11.25 16.125 11.25 17.5C11.25 18.875 12.925 20 15 20C17.075 20 18.75 18.875 18.75 17.5Z" fill="#6F60BA"/>
<path d="M15 10C12.2805 10 9.62209 10.8064 7.36092 12.3173C5.09974 13.8282 3.33737 15.9756 2.29666 18.4881C1.25596 21.0006 0.983662 23.7653 1.51421 26.4325C2.04476 29.0997 3.35432 31.5497 5.27729 33.4727C7.20026 35.3957 9.65028 36.7053 12.3175 37.2358C14.9848 37.7663 17.7494 37.494 20.2619 36.4533C22.7744 35.4126 24.9218 33.6503 26.4327 31.3891C27.9436 29.1279 28.75 26.4695 28.75 23.75C28.751 21.944 28.396 20.1556 27.7054 18.4869C27.0147 16.8183 26.0019 15.3021 24.7249 14.0251C23.4479 12.7481 21.9317 11.7353 20.2631 11.0447C18.5944 10.354 16.806 9.99902 15 10ZM15 31.25C8.09126 31.25 2.50001 26.7775 2.50001 21.25C2.50001 15.7225 8.09126 11.25 15 11.25C21.9088 11.25 27.5 15.7225 27.5 21.25C27.5 26.7775 21.9088 31.25 15 31.25Z" fill="#483584"/>
<path d="M15 22.5C19.8325 22.5 23.75 19.9816 23.75 16.875C23.75 13.7684 19.8325 11.25 15 11.25C10.1675 11.25 6.25 13.7684 6.25 16.875C6.25 19.9816 10.1675 22.5 15 22.5Z" fill="#9883FF"/>
<path d="M15 21.25C17.7614 21.25 20 19.5711 20 17.5C20 15.4289 17.7614 13.75 15 13.75C12.2386 13.75 10 15.4289 10 17.5C10 19.5711 12.2386 21.25 15 21.25Z" fill="#5F4A9E"/>
<path d="M15 20C17.0711 20 18.75 18.8807 18.75 17.5C18.75 16.1193 17.0711 15 15 15C12.9289 15 11.25 16.1193 11.25 17.5C11.25 18.8807 12.9289 20 15 20Z" fill="#39285E"/>
<path d="M15 16.25C15.7189 16.1845 16.4415 16.3262 17.0824 16.6585C17.7233 16.9908 18.2555 17.4997 18.6162 18.125C18.6997 17.9269 18.7451 17.7149 18.75 17.5C18.75 16.125 17.075 15 15 15C12.925 15 11.25 16.125 11.25 17.5C11.2549 17.7149 11.3003 17.9269 11.3838 18.125C11.7445 17.4997 12.2767 16.9908 12.9176 16.6585C13.5585 16.3262 14.2811 16.1845 15 16.25Z" fill="#261647"/>
<path d="M24.4075 18.7562C24.3175 18.7693 24.2299 18.7954 24.1475 18.8337C23.4525 19.1462 23.0425 20.0837 22.5475 20.6325C21.1896 22.1342 19.4141 23.1963 17.4487 23.6825C17.232 23.7001 17.0213 23.7624 16.8298 23.8654C16.6384 23.9684 16.4703 24.11 16.3362 24.2812C16.2534 24.479 16.2375 24.6984 16.291 24.906C16.3444 25.1137 16.4644 25.2981 16.6325 25.4312C16.9742 25.6858 17.3735 25.8519 17.795 25.915C19.3654 26.3532 21.0253 26.3567 22.5975 25.925C23.3505 25.658 24.0408 25.2397 24.626 24.6958C25.2112 24.1519 25.6788 23.494 26 22.7625C26.2007 22.2937 26.2757 21.7807 26.2176 21.2741C26.1595 20.7676 25.9703 20.2849 25.6687 19.8737C25.355 19.3562 25.0075 18.6762 24.4075 18.7562Z" fill="#7E6DD4"/>
<path d="M6.26873 34.375C8.72712 32.3496 11.8147 31.2445 15 31.25C12.5253 31.2674 10.0862 30.6598 7.90873 29.4838C6.57331 30.2829 5.3831 31.3028 4.38873 32.5C4.95402 33.1837 5.58357 33.8116 6.26873 34.375Z" fill="#39285E"/>
<path d="M27.4838 20.9912C27.0472 21.2739 26.6269 21.5811 26.225 21.9112C26.1975 22.2049 26.1233 22.4923 26.005 22.7625C25.4143 24.0765 24.3613 25.1277 23.0463 25.7162C22.4246 26.8133 21.9577 27.9911 21.6588 29.2162C19.5468 28.0449 17.1629 27.4524 14.7483 27.4987C12.3337 27.5451 9.97424 28.2285 7.90875 29.48C9.99749 30.5888 12.3171 31.1924 14.6814 31.2424C17.0457 31.2923 19.3888 30.7871 21.5225 29.7675C21.7138 29.6737 21.9075 29.5812 22.0913 29.48C23.6511 28.7233 24.9773 27.5589 25.9295 26.1101C26.8816 24.6613 27.4243 22.982 27.5 21.25C27.5 21.1625 27.4863 21.0775 27.4838 20.9912Z" fill="#483584"/>
<path d="M28.3413 20.47C28.0475 20.6325 27.7625 20.8087 27.4837 20.9912C27.4837 21.0775 27.5 21.1625 27.5 21.25C27.425 22.9826 26.8826 24.6628 25.9304 26.1123C24.9782 27.5618 23.6516 28.7268 22.0913 29.4837C21.9075 29.585 21.7163 29.6775 21.5225 29.7712C19.4895 30.755 17.2585 31.2608 15 31.25C18.1821 31.2626 21.2638 32.3656 23.7313 34.375C24.4147 33.8113 25.0425 33.1834 25.6063 32.5C25.8488 32.2062 26.0738 31.8975 26.2913 31.5837C26.4494 29.1018 27.2818 26.7101 28.6987 24.6662C28.7188 24.3625 28.745 24.0587 28.745 23.75C28.7425 22.6444 28.6069 21.5431 28.3413 20.47Z" fill="#39285E"/>
<path d="M26 22.7625C26.1183 22.4923 26.1925 22.2049 26.22 21.9113C24.9393 22.9772 23.8623 24.2663 23.0413 25.7163C24.3563 25.1278 25.4093 24.0766 26 22.7625Z" fill="#5F4A9E"/>
<path d="M7.5 48.75C8.88071 48.75 10 47.0711 10 45C10 42.9289 8.88071 41.25 7.5 41.25C6.11929 41.25 5 42.9289 5 45C5 47.0711 6.11929 48.75 7.5 48.75Z" fill="#39285E"/>
<path d="M15 31.25C17.7195 31.25 20.3779 32.0564 22.6391 33.5673C24.9003 35.0782 26.6626 37.2256 27.7033 39.7381C28.744 42.2506 29.0163 45.0153 28.4858 47.6825C27.9553 50.3497 26.6457 52.7997 24.7227 54.7227C22.7997 56.6457 20.3497 57.9553 17.6825 58.4858C15.0153 59.0163 12.2506 58.744 9.7381 57.7033C7.22562 56.6626 5.07816 54.9003 3.56729 52.6391C2.05643 50.3779 1.25 47.7195 1.25 45C1.24902 43.194 1.604 41.4056 2.29465 39.7369C2.9853 38.0683 3.99808 36.5521 5.27509 35.2751C6.55209 33.9981 8.06827 32.9853 9.73694 32.2946C11.4056 31.604 13.194 31.249 15 31.25ZM10 45C10 42.925 8.875 41.25 7.5 41.25C6.125 41.25 5 42.925 5 45C5 47.075 6.125 48.75 7.5 48.75C8.875 48.75 10 47.075 10 45Z" fill="#7E6DD4"/>
<path d="M1.25 45C1.25 47.7195 2.05643 50.3779 3.56729 52.6391C5.07816 54.9003 7.22562 56.6626 9.7381 57.7033C12.2506 58.744 15.0153 59.0163 17.6825 58.4858C20.3497 57.9553 22.7997 56.6457 24.7227 54.7227C26.6457 52.7997 27.9553 50.3497 28.4858 47.6825C29.0163 45.0153 28.744 42.2506 27.7033 39.7381C26.6626 37.2256 24.9003 35.0782 22.6391 33.5673C20.3779 32.0564 17.7195 31.25 15 31.25C13.194 31.249 11.4056 31.604 9.73694 32.2946C8.06827 32.9853 6.55209 33.9981 5.27509 35.2751C3.99808 36.5521 2.9853 38.0683 2.29465 39.7369C1.604 41.4056 1.24902 43.194 1.25 45ZM22.5 45C22.5 51.9088 18.0275 57.5 12.5 57.5C6.9725 57.5 2.5 51.9088 2.5 45C2.5 38.0913 6.9725 32.5 12.5 32.5C18.0275 32.5 22.5 38.0913 22.5 45Z" fill="#5F4A9E"/>
<path d="M8.125 53.75C11.2316 53.75 13.75 49.8325 13.75 45C13.75 40.1675 11.2316 36.25 8.125 36.25C5.0184 36.25 2.5 40.1675 2.5 45C2.5 49.8325 5.0184 53.75 8.125 53.75Z" fill="#9883FF"/>
<path d="M7.5 50C9.57107 50 11.25 47.7614 11.25 45C11.25 42.2386 9.57107 40 7.5 40C5.42893 40 3.75 42.2386 3.75 45C3.75 47.7614 5.42893 50 7.5 50Z" fill="#5F4A9E"/>
<path d="M7.5 48.75C8.88071 48.75 10 47.0711 10 45C10 42.9289 8.88071 41.25 7.5 41.25C6.11929 41.25 5 42.9289 5 45C5 47.0711 6.11929 48.75 7.5 48.75Z" fill="#39285E"/>
<path d="M6.25 45C6.18446 44.2811 6.32623 43.5585 6.65851 42.9176C6.99079 42.2767 7.49969 41.7445 8.125 41.3837C7.92693 41.3003 7.71489 41.2549 7.5 41.25C6.125 41.25 5 42.925 5 45C5 47.075 6.125 48.75 7.5 48.75C7.71489 48.7451 7.92693 48.6997 8.125 48.6163C7.49969 48.2555 6.99079 47.7233 6.65851 47.0824C6.32623 46.4415 6.18446 45.7189 6.25 45Z" fill="#261647"/>
<path d="M11 35.5088C11.0133 35.5987 11.0394 35.6863 11.0775 35.7688C11.3913 36.4638 12.335 36.8738 12.8775 37.3675C14.3785 38.7263 15.4401 40.5021 15.9263 42.4675C15.9439 42.6844 16.0064 42.8952 16.1097 43.0867C16.2129 43.2781 16.3548 43.4461 16.5263 43.58C16.7238 43.6628 16.943 43.6786 17.1505 43.6252C17.3579 43.5717 17.5421 43.4518 17.675 43.2838C17.9296 42.942 18.0957 42.5427 18.1588 42.1213C18.5973 40.5505 18.6007 38.8901 18.1688 37.3175C17.9024 36.5638 17.4843 35.8726 16.9404 35.2868C16.3965 34.7009 15.7382 34.2328 15.0063 33.9113C14.5375 33.7106 14.0245 33.6356 13.5179 33.6937C13.0113 33.7517 12.5287 33.9409 12.1175 34.2425C11.6063 34.5613 10.9263 34.9075 11 35.5088Z" fill="#9883FF"/>
<path d="M28.75 23.6325C29.1475 23.7125 29.375 23.75 29.375 23.75L29.4088 23.7288C29.6213 23.4713 29.8512 23.2287 30.0825 22.9875C30.9802 21.3453 31.3856 19.4791 31.25 17.6125C31.25 17.6125 31.25 4.3125 18.125 1.25C17.0697 4.07592 16.4787 7.054 16.375 10.0688C19.7475 10.4051 22.8767 11.9761 25.161 14.4799C27.4453 16.9836 28.7236 20.2434 28.75 23.6325Z" fill="#4E8C00"/>
<path d="M40 18.75C43.5678 18.7479 46.9955 20.1382 49.5538 22.625C50.4633 21.8274 51.1954 20.848 51.7029 19.7499C52.2103 18.6518 52.4819 17.4595 52.5 16.25C52.5 6.25 50 1.25 50 1.25C45.8105 6.72853 42.1681 12.6045 39.125 18.7938C39.415 18.7763 39.705 18.75 40 18.75Z" fill="#63B300"/>
<path d="M50 1.25C33.8175 4.7175 32.6 18.8638 32.5087 20.9763C34.4885 19.6893 36.768 18.9374 39.125 18.7938C42.168 12.6045 45.8104 6.72853 50 1.25Z" fill="#4E8C00"/>
<path d="M41.7188 13.875C40.8438 15.4225 39.9688 17.0662 39.125 18.8C39.415 18.7825 39.705 18.7562 40 18.7562C43.5678 18.7542 46.9955 20.1444 49.5538 22.6312C50.3491 21.8832 51.02 21.0131 51.5413 20.0537C50.4541 18.3695 49.0114 16.9436 47.3145 15.8762C45.6176 14.8088 43.7077 14.1258 41.7188 13.875Z" fill="#4E8C00"/>
<path d="M39.125 18.7938C39.975 17.06 40.85 15.4188 41.7187 13.8688C41.1488 13.7937 40.5748 13.7541 40 13.75C37.7717 13.7489 35.5768 14.2921 33.6062 15.3325C32.992 17.1568 32.6229 19.0547 32.5087 20.9763C34.4885 19.6893 36.768 18.9374 39.125 18.7938Z" fill="#3F7000"/>
<path d="M17 5.26501C16.692 6.85171 16.4833 8.45608 16.375 10.0688C19.7475 10.4051 22.8767 11.9761 25.161 14.4799C27.4453 16.9836 28.7236 20.2434 28.75 23.6325C29.1475 23.7125 29.375 23.75 29.375 23.75L29.4088 23.7288C29.6213 23.4713 29.8512 23.2288 30.0825 22.9875C30.9802 21.3453 31.3856 19.4792 31.25 17.6125C31.1944 16.0801 30.9466 14.5607 30.5125 13.09C27.203 8.81723 22.3532 6.00874 17 5.26501Z" fill="#3F7000"/>
<path d="M49.5283 27.0516C50.3338 26.2462 50.0777 24.6842 48.9564 23.5629C47.8351 22.4416 46.2732 22.1856 45.4677 22.9911C44.6623 23.7965 44.9183 25.3585 46.0396 26.4797C47.1609 27.601 48.7229 27.8571 49.5283 27.0516Z" fill="#F6FAFD"/>
<path d="M14.5195 39.5404C15.325 38.7349 15.069 37.173 13.9477 36.0517C12.8264 34.9304 11.2644 34.6744 10.459 35.4798C9.65353 36.2853 9.90957 37.8472 11.0309 38.9685C12.1522 40.0898 13.7141 40.3458 14.5195 39.5404Z" fill="#F6FAFD"/>
<path d="M33.2746 34.5466C34.08 33.7412 33.824 32.1792 32.7027 31.0579C31.5814 29.9366 30.0194 29.6806 29.214 30.4861C28.4085 31.2915 28.6646 32.8534 29.7859 33.9747C30.9072 35.096 32.4691 35.3521 33.2746 34.5466Z" fill="#C4B0FF"/>
<path d="M48.5112 31.0359C48.9139 30.6332 48.7861 29.8524 48.2257 29.292C47.6653 28.7316 46.8845 28.6038 46.4818 29.0065C46.0791 29.4092 46.2069 30.19 46.7673 30.7504C47.3277 31.3108 48.1085 31.4386 48.5112 31.0359Z" fill="#F6FAFD"/>
<path d="M23.5112 19.776C23.9139 19.3733 23.7861 18.5925 23.2257 18.0321C22.6653 17.4717 21.8845 17.3439 21.4818 17.7466C21.0791 18.1494 21.2069 18.9301 21.7673 19.4905C22.3277 20.0509 23.1085 20.1788 23.5112 19.776Z" fill="#F6FAFD"/>
<path d="M22.6874 16.1437C22.889 15.9421 22.8253 15.5515 22.5451 15.2713C22.2649 14.9911 21.8743 14.9274 21.6727 15.129C21.4711 15.3306 21.5348 15.7212 21.815 16.0014C22.0952 16.2816 22.4858 16.3453 22.6874 16.1437Z" fill="#F6FAFD"/>
<path d="M54.75 29.7737L52.2912 30.2262C52.4291 30.9763 52.4989 31.7373 52.5 32.5C52.5023 34.503 52.0232 36.4772 51.1031 38.2564C50.183 40.0356 48.8488 41.5676 47.2128 42.7234C45.5769 43.8792 43.6872 44.625 41.7028 44.8978C39.7185 45.1707 37.6976 44.9627 35.8104 44.2913C33.9233 43.62 32.2251 42.505 30.8589 41.0402C29.4927 39.5754 28.4985 37.8037 27.9601 35.8744C27.4216 33.9451 27.3547 31.9147 27.765 29.9541C28.1753 27.9935 29.0507 26.1603 30.3175 24.6087C30.5985 24.3704 30.8457 24.0949 31.0525 23.79C32.509 22.2892 34.3192 21.1783 36.3169 20.5593C38.3146 19.9403 40.4357 19.833 42.4857 20.2472C44.5356 20.6614 46.4487 21.5839 48.0492 22.93C49.6498 24.2761 50.8867 26.0027 51.6462 27.9512L53.9762 27.0412C53.3419 25.4224 52.4332 23.925 51.29 22.615C52.867 20.8694 53.7431 18.6024 53.75 16.25C53.75 6.07122 51.225 0.906219 51.125 0.691219C51.0008 0.44175 50.7968 0.240935 50.5454 0.120676C50.294 0.000416946 50.0097 -0.0323893 49.7375 0.0274688C38.3312 2.47247 33.9625 10.0637 32.2887 15.4675C31.6462 11.3487 29.0387 2.51622 18.4137 0.0324688C18.1329 -0.0332816 17.8379 0.000124594 17.5789 0.127023C17.3199 0.253921 17.1127 0.466502 16.9925 0.728719C16.0135 3.30488 15.4237 6.01251 15.2425 8.76247C15.1637 8.76247 15.0862 8.74997 15.0075 8.74997C12.2607 8.74902 9.56644 9.50229 7.21845 10.9276C4.87046 12.353 2.95893 14.3957 1.69231 16.833C0.425696 19.2703 -0.147368 22.0086 0.0356156 24.7492C0.218599 27.4899 1.15061 30.1277 2.72999 32.375L4.77249 30.935C3.64312 29.3277 2.90843 27.4769 2.62801 25.5327C2.3476 23.5885 2.52934 21.6055 3.15851 19.7446C3.78769 17.8838 4.84657 16.1974 6.24929 14.8222C7.65202 13.447 9.3591 12.4218 11.2321 11.8297C13.1051 11.2376 15.0913 11.0952 17.0296 11.4142C18.9678 11.7331 20.8037 12.5044 22.3882 13.6654C23.9727 14.8265 25.2613 16.3446 26.1494 18.0967C27.0376 19.8488 27.5003 21.7856 27.5 23.75C27.5 23.9237 27.4837 24.0925 27.4762 24.2637C25.8595 26.7062 24.9983 29.5709 25 32.5C25 32.9787 25.0275 33.45 25.0712 33.9162C22.5248 31.6123 19.2641 30.2533 15.8351 30.067C12.4062 29.8807 9.0174 30.8783 6.23635 32.8928C3.4553 34.9072 1.45094 37.8162 0.559027 41.1323C-0.33289 44.4485 -0.0581911 47.9704 1.33711 51.1081C2.73241 54.2459 5.16356 56.8088 8.22331 58.3677C11.2831 59.9266 14.7856 60.3868 18.1442 59.671C21.5027 58.9553 24.5134 57.1072 26.6717 54.4363C28.8301 51.7654 30.0051 48.434 30 45C30 44.5212 29.9725 44.05 29.9287 43.5837C32.0746 45.5434 34.7444 46.8363 37.6124 47.3048C40.4805 47.7733 43.4228 47.3971 46.0807 46.222C48.7387 45.047 50.9972 43.1239 52.581 40.6874C54.1647 38.2508 55.0052 35.406 55 32.5C54.9995 31.5855 54.9158 30.673 54.75 29.7737ZM51.25 16.25C51.2455 17.9512 50.6201 19.5923 49.4912 20.865C47.1185 18.9273 44.2065 17.7676 41.1512 17.5437C43.6332 12.771 46.4656 8.18889 49.625 3.83497C50.7769 7.87033 51.3245 12.0541 51.25 16.25ZM46.7987 3.46497C43.6253 7.95873 40.7924 12.6836 38.3237 17.6C36.8349 17.7663 35.3797 18.1565 34.0075 18.7575C34.5437 15.2848 36.0186 12.0248 38.273 9.32953C40.5274 6.63429 43.4755 4.60639 46.7987 3.46497ZM17.7125 9.00872C17.8934 6.88677 18.2939 4.7893 18.9075 2.74997C29.825 5.98122 30 17.125 30 17.6137C30.017 18.6461 29.9104 19.6767 29.6825 20.6837C29.0677 17.7711 27.6019 15.1065 25.4709 13.028C23.3398 10.9495 20.6396 9.55061 17.7125 9.00872ZM15 57.5C12.5277 57.5 10.111 56.7669 8.05537 55.3933C5.99975 54.0198 4.39759 52.0676 3.4515 49.7835C2.5054 47.4994 2.25786 44.9861 2.74018 42.5613C3.22249 40.1366 4.413 37.9093 6.16116 36.1611C7.90932 34.413 10.1366 33.2225 12.5614 32.7402C14.9861 32.2578 17.4995 32.5054 19.7835 33.4515C22.0676 34.3976 24.0198 35.9997 25.3934 38.0553C26.7669 40.111 27.5 42.5277 27.5 45C27.4964 48.3141 26.1782 51.4914 23.8348 53.8348C21.4914 56.1782 18.3141 57.4963 15 57.5Z" fill="#001A1F"/>
<path d="M7.5 40C5.39625 40 3.75 42.1962 3.75 45C3.75 47.8038 5.39625 50 7.5 50C9.60375 50 11.25 47.8038 11.25 45C11.25 42.1962 9.60375 40 7.5 40ZM7.5 47.5C6.99 47.5 6.25 46.5262 6.25 45C6.25 43.4738 6.99 42.5 7.5 42.5C8.01 42.5 8.75 43.4738 8.75 45C8.75 46.5262 8.01 47.5 7.5 47.5Z" fill="#001A1F"/>
<path d="M20 17.5C20 15.3963 17.8038 13.75 15 13.75C12.1962 13.75 10 15.3963 10 17.5C10 19.6037 12.1962 21.25 15 21.25C17.8038 21.25 20 19.6037 20 17.5ZM12.5 17.5C12.5 16.99 13.4738 16.25 15 16.25C16.5262 16.25 17.5 16.99 17.5 17.5C17.5 18.01 16.5262 18.75 15 18.75C13.4738 18.75 12.5 18.01 12.5 17.5Z" fill="#001A1F"/>
<path d="M35 26.25C35 28.3537 37.1962 30 40 30C42.8038 30 45 28.3537 45 26.25C45 24.1463 42.8038 22.5 40 22.5C37.1962 22.5 35 24.1463 35 26.25ZM42.5 26.25C42.5 26.76 41.5262 27.5 40 27.5C38.4738 27.5 37.5 26.76 37.5 26.25C37.5 25.74 38.4738 25 40 25C41.5262 25 42.5 25.74 42.5 26.25Z" fill="#001A1F"/>
</svg>
